<svg width="1360" height="162" viewBox="0 0 1360 162" fill="none" xmlns="http://www.w3.org/2000/svg">
<path d="M10.4921 28.1934C10.4921 16.1704 7.07143 8.54345 0 4.62899H96.9752C105.872 4.62899 110.673 4.39599 115.459 0V47.6103C107.467 24.4964 98.3404 18.2674 77.8011 18.2674H36.9524V74.1882H73.0152C81.912 74.1882 89.6737 73.4892 95.1498 57.3188V103.764C89.6737 88.5101 81.912 87.8266 73.0152 87.8266H36.9524V133.122C36.9524 145.829 41.7383 154.155 55.6664 158.085H0C7.07143 154.155 10.4921 146.528 10.4921 134.52V28.1934Z" fill="white"/>
<path d="M279.068 158.054H185.514C192.585 154.124 196.006 146.498 196.006 134.49V28.1941C196.006 16.1711 192.585 8.55971 185.514 4.62972H231.839C225.902 8.55971 222.481 16.1867 222.481 28.1941V144.432H264.695C284.314 144.432 290.941 134.49 299.838 107.928V160.384C292.996 158.303 287.29 158.07 279.068 158.07V158.054Z" fill="white"/>
<path d="M401.614 133.791V106.064L348.218 21.2661C343.662 14.3382 340.917 9.47619 333.845 4.62972H383.821C374.694 9.70919 376.059 15.2547 379.94 21.4991L422.154 89.2098L460.042 25.8951C466.208 15.5032 464.383 8.79271 456.621 4.62972H496.319C486.057 10.6412 481.026 17.5692 475.105 27.5106L428.09 106.079V133.807C428.09 145.83 431.511 153.907 443.153 158.07H386.567C398.209 153.907 401.63 145.83 401.63 133.807L401.614 133.791Z" fill="white"/>
<path d="M574.612 4.62972C566.39 9.47619 565.485 15.0217 568.445 22.8816L600.167 107.695L629.833 26.8116C624.817 13.6392 620.476 7.8607 616.595 4.62972H662C655.158 8.55971 652.413 14.3382 656.294 24.0466L688.46 108.627L718.356 27.9766C722.467 16.6527 720.182 9.25872 710.825 4.64526H749.388C741.626 9.72472 737.07 16.6527 733.19 26.5941L689.611 142.366C686.65 150.226 685.055 155.305 683.444 162L636.889 43.914L601.072 140.735C598.111 149.045 596.056 155.29 594.675 162L538.764 19.6507C536.018 12.9402 533.057 8.79271 526.891 4.62972H574.612Z" fill="white"/>
<path d="M795.16 135.64L846.501 26.3456C840.795 15.0217 835.319 8.0937 823.231 4.62972H868.191C868.881 10.6412 871.612 16.4197 874.587 22.4156L931.404 143.034C934.365 149.278 936.65 153.891 942.817 158.054H893.761C904.484 153.208 904.484 147.43 901.523 140.952L894.222 125.698H815.04L810.699 134.708C805.453 146.032 808.183 153.425 817.54 158.054H778.747C786.509 152.975 790.39 145.581 795.176 135.64H795.16ZM888.27 112.774L854.723 40.9005L821.176 112.774H888.27Z" fill="white"/>
<path d="M1012.92 134.49V28.1941C1012.92 16.1711 1009.5 8.55971 1002.42 4.62972H1068.37C1108.07 4.62972 1132.49 15.7207 1132.49 47.145C1132.49 78.5694 1109.22 88.7438 1081.38 90.3593C1098.27 91.2758 1105.11 95.9048 1111.04 105.613L1132.26 137.97C1138.87 147.911 1142.52 151.841 1151.43 158.07H1103.74C1108.3 154.839 1108.99 149.977 1104.65 143.282L1080.23 105.38C1074.29 95.9048 1069.27 93.5903 1059.01 93.5903H1039.39V134.49C1039.39 146.513 1042.81 154.14 1049.88 158.054H1002.42C1009.5 154.124 1012.92 146.498 1012.92 134.49ZM1068.37 80.6509C1092.1 80.6509 1103.74 72.1074 1103.74 49.4595C1103.74 26.8116 1092.1 18.2682 1068.37 18.2682H1039.39V80.6664H1068.37V80.6509Z" fill="white"/>
<path d="M1220.8 28.1941C1220.8 16.1711 1217.38 8.55971 1210.3 4.62972H1275.34C1333.75 4.62972 1360 36.9861 1360 81.1169C1360 125.248 1333.75 158.07 1275.34 158.07H1210.3C1217.38 154.14 1220.8 146.513 1220.8 134.506V28.1941ZM1275.34 144.432C1316.65 144.432 1330.1 122.949 1330.1 81.1169C1330.1 42.0656 1314.37 18.2682 1275.34 18.2682L1247.27 18.5012V144.214L1275.34 144.447V144.432Z" fill="white"/>
</svg>
