<svg width="180" height="80" viewBox="0 0 180 80" fill="none" xmlns="http://www.w3.org/2000/svg">
<g clip-path="url(#clip0_2_1414)">
<path d="M54.3002 71.9996L58.373 51.6788H64.9998L60.9501 71.9996H54.3002ZM74.2958 65.3487H78.5066L77.4252 57.8924L74.2958 65.3487ZM64.9998 71.9996L75.0321 51.6788H81.5669L85.6857 71.9996H79.5421L79.1739 69.5832H72.6391L71.6037 71.9996H64.9998ZM91.7833 71.9996L94.0613 56.7187H88.2628L89.2523 51.5868H107.062L106.073 56.7187H100.55L98.3182 71.9996H91.7833ZM114.057 65.3487H118.268L117.186 57.8924L114.057 65.3487ZM104.784 71.9996L114.793 51.6788H121.328L125.447 71.9996H119.257L118.958 69.5832H112.423L111.388 71.9996H104.784ZM139.92 28.7116H108.742C107.591 34.4189 103.633 39.1826 95.7411 42.4735C96.6384 45.1891 99.6988 47.6975 102.874 47.6975H119.786C122.364 47.6975 124.411 45.5343 125.24 43.7853H108.051C106.993 43.6012 106.947 42.7497 108.005 42.6576H124.895C127.081 42.6576 129.059 40.7935 130.21 38.7684H110.536C109.547 38.6073 109.547 37.7788 110.536 37.6177H130.371C132.373 37.6177 134.191 35.2934 134.95 33.7285H113.183C112.101 33.5904 112.101 32.5778 113.183 32.5548H135.341C137.067 32.5548 138.747 30.6677 139.92 28.7116ZM40.0801 28.7116H71.2585C72.386 34.4189 76.3667 39.1826 84.2361 42.4735C83.3387 45.1891 80.2784 47.6975 77.103 47.6975H60.2138C57.6366 47.6975 55.5888 45.5343 54.7604 43.7853H71.9488C72.9843 43.6012 73.0533 42.7497 71.9948 42.6576H55.0825C52.8966 42.6576 50.9177 40.7935 49.7903 38.7684H69.4867C70.4762 38.6073 70.4762 37.7788 69.4867 37.6177H49.6522C47.6503 37.6177 45.8326 35.2934 45.0732 33.7285H66.8406C67.9221 33.5904 67.9221 32.5778 66.8406 32.5548H44.6821C42.9333 32.5548 41.2536 30.6677 40.0801 28.7116ZM79.8872 11.5897C81.0377 12.5792 82.3263 13.4537 83.7069 14.006C84.8804 11.7047 86.5141 9.72557 88.4009 7.97656C85.2946 8.3908 82.3723 9.56448 79.8872 11.5897ZM74.3648 22.9352H81.3138C81.4749 20.0816 82.0732 17.5731 83.2007 14.9956C81.659 14.3052 80.3244 13.4767 79.0359 12.3721C76.1596 15.2488 74.5719 18.9539 74.3648 22.9352ZM89.4593 16.4224V22.9352H82.5104C82.5564 20.3807 83.1546 17.7572 84.2361 15.3868C85.8928 15.9852 87.6876 16.3764 89.4593 16.4224ZM100.113 11.5897C98.9854 12.5792 97.6509 13.4537 96.2933 14.006C95.0508 11.6587 93.5091 9.7716 91.5763 7.99958C94.7056 8.3908 97.6279 9.56448 100.113 11.5897ZM105.612 22.9352H98.6863C98.5943 20.1276 97.95 17.5041 96.8455 14.9956C98.3182 14.3052 99.7218 13.4307 100.941 12.3721C103.933 15.3638 105.474 19.046 105.612 22.9352ZM90.5868 16.4224V22.9352H97.4898C97.4898 20.3117 96.8455 17.8032 95.7641 15.3868C94.1073 15.9852 92.3356 16.3764 90.5868 16.4224ZM79.8872 35.4314C81.0377 34.5339 82.3723 33.5443 83.7069 33.0611C84.9494 35.3854 86.4911 37.2955 88.4009 39.0215C85.2946 38.6073 82.3263 37.4336 79.8872 35.4314ZM74.3648 24.0629H81.3138C81.4749 26.9395 82.0732 29.471 83.2007 32.0715C81.659 32.7619 80.3244 33.5904 79.0359 34.672C76.2056 31.8183 74.5719 28.1132 74.3648 24.0629ZM89.4593 30.5986V24.0629H82.5104C82.5564 26.6864 83.1546 29.2869 84.2361 31.6112C85.8928 31.0129 87.6876 30.6447 89.4593 30.5986ZM100.113 35.4314C99.0315 34.4879 97.6509 33.6134 96.2933 33.0611C95.0508 35.3854 93.5091 37.2955 91.5763 39.0215C94.7056 38.6073 97.6279 37.4336 100.113 35.4314ZM105.612 24.0629H98.6863C98.5943 26.9395 97.973 29.494 96.8455 32.0715C98.3182 32.7619 99.6527 33.5904 100.941 34.672C103.795 31.8183 105.474 28.0212 105.612 24.0629ZM90.5868 30.5986V24.0629H97.4898C97.4898 26.6864 96.8455 29.2409 95.7641 31.6112C94.1534 31.0129 92.2896 30.6447 90.5868 30.5986ZM89.4593 8.64395C87.5725 10.1628 85.8928 12.234 84.7883 14.3973C86.284 14.9036 87.8717 15.3178 89.4593 15.3178V8.64395ZM90.5868 8.64395C92.4276 10.1628 94.1074 12.165 95.2118 14.3973C93.7162 14.9496 92.1285 15.3178 90.5868 15.3178V8.64395ZM89.4593 38.3771C87.5725 36.8813 85.8928 34.8101 84.7883 32.6008C86.284 32.0715 87.8717 31.7723 89.4593 31.7723V38.3771ZM90.5868 38.4232C92.4276 36.8813 94.1074 34.8101 95.2118 32.6008C93.7162 32.1175 92.1285 31.7723 90.5868 31.7723V38.4232Z" fill="#3D2D20"/>
</g>
<defs>
<clipPath id="clip0_2_1414">
<rect width="99.84" height="64" fill="white" transform="translate(40.0801 8)"/>
</clipPath>
</defs>
</svg>
