<svg width="220" height="80" viewBox="0 0 220 80" fill="none" xmlns="http://www.w3.org/2000/svg">
<g clip-path="url(#clip0_2_1426)">
<path fill-rule="evenodd" clip-rule="evenodd" d="M36.7913 43.8501C36.7913 45.3001 35.6316 45.9501 33.7157 45.9501H28.5224V41.7001H33.5644C35.7829 41.7001 36.7913 42.5001 36.7913 43.8001V43.8501ZM28.5224 34.0501H32.8081C34.6232 34.0501 35.6821 34.7501 35.6821 36.0501V36.1001C35.6821 37.5501 34.472 38.1501 32.556 38.1501H28.5224V34.0501ZM37.3964 39.5501C38.8081 38.8001 40.0182 37.5501 40.0182 35.4001V35.3501C40.0182 34.0001 39.5644 32.9501 38.6569 32.0501C37.5476 30.9501 35.7325 30.3501 33.4636 30.3501H24.2871V49.7001H33.7157C38.2031 49.7001 41.1274 47.9501 41.1274 44.4001V44.3501C41.1274 41.7001 39.7157 40.4001 37.3964 39.5501Z" fill="#3D2D20"/>
<path fill-rule="evenodd" clip-rule="evenodd" d="M48.5363 30.3501H44.2002V49.7001H57.8641V45.8501H48.5363V30.3501Z" fill="#3D2D20"/>
<path fill-rule="evenodd" clip-rule="evenodd" d="M184.974 45.9001V41.8501H194.302V38.0501H184.974V34.1001H195.563V30.3501H180.638V49.7001H195.714V45.9001H184.974Z" fill="#3D2D20"/>
<path fill-rule="evenodd" clip-rule="evenodd" d="M144.387 41.5497L147.009 35.2997L149.63 41.5497H144.387ZM145.093 30.1997L136.622 49.6497H141.059L142.874 45.2997H151.244L153.059 49.6497H157.597L149.076 30.1997H145.093Z" fill="#3D2D20"/>
<path fill-rule="evenodd" clip-rule="evenodd" d="M90.9914 46.0998C87.6133 46.0998 85.2435 43.3498 85.2435 39.9998V39.9498C85.2435 36.6498 87.6637 33.9498 90.9914 33.9498C92.9578 33.9498 94.5208 34.7998 96.0334 36.1498L98.8065 33.0498C96.9914 31.2998 94.7225 30.0498 90.9914 30.0498C84.8906 30.0498 80.6553 34.5498 80.6553 40.0498V40.0998C80.6553 45.6498 84.9914 50.0498 90.7897 50.0498C94.6217 50.0498 96.8906 48.6998 98.9074 46.5998L96.1343 43.8498C94.6217 45.1998 93.2603 46.0998 90.9914 46.0998Z" fill="#3D2D20"/>
<path fill-rule="evenodd" clip-rule="evenodd" d="M172.872 42.2501L163.595 30.3501H159.562V49.7001H163.847V37.4001L173.427 49.7001H177.158V30.3501H172.872V42.2501Z" fill="#3D2D20"/>
<path fill-rule="evenodd" clip-rule="evenodd" d="M125.429 30.3501H121.093V49.7001H134.707V45.8501H125.429V30.3501Z" fill="#3D2D20"/>
<path fill-rule="evenodd" clip-rule="evenodd" d="M118.924 30.3501H113.681L105.664 38.8001V30.3501H101.328V49.7001H105.664V43.7501L107.933 41.4501L114.034 49.6501H119.277L110.857 38.5001L118.924 30.3501Z" fill="#3D2D20"/>
<path fill-rule="evenodd" clip-rule="evenodd" d="M68.2012 30.1997L59.6802 49.6497H64.1172L65.9323 45.2997H74.302L76.1172 49.6497H80.655L72.1844 30.1997H68.2012ZM70.1172 35.2997L72.739 41.5497H67.4953L70.1172 35.2997Z" fill="#3D2D20"/>
</g>
<defs>
<clipPath id="clip0_2_1426">
<rect width="171.429" height="20" fill="white" transform="translate(24.2856 30)"/>
</clipPath>
</defs>
</svg>
