<svg width="220" height="80" viewBox="0 0 220 80" fill="none" xmlns="http://www.w3.org/2000/svg">
<g clip-path="url(#clip0_2_1380)">
<path fill-rule="evenodd" clip-rule="evenodd" d="M63.7336 34.2134H62.7286H52.1984V38.4858H62.7492C64.2966 38.4858 65.3517 38.7577 65.9147 39.2945C66.4777 39.832 66.7631 40.8545 66.7631 42.3757V44.3437C66.7631 45.8648 66.484 46.8881 65.9346 47.4249C65.3844 47.9624 64.322 48.2343 62.7492 48.2343H52.7486C51.175 48.2343 50.1135 47.9624 49.5505 47.4249C49.1824 47.0742 48.9335 46.5168 48.8047 45.7487H51.5376H63.9666V41.1265H53.3696C51.8159 41.1265 50.7544 40.8545 50.1978 40.3178C49.6412 39.7803 49.3629 38.7577 49.3629 37.2358V35.6829C49.3629 34.1745 49.6412 33.1448 50.1978 32.5945C50.7544 32.0451 51.8159 31.7668 53.3696 31.7668H62.5226C64.0572 31.7668 65.1124 32.0316 65.6945 32.5627C66.0912 32.9277 66.3528 33.4763 66.4793 34.2134H63.7336ZM84.2652 36.2093V48.2343H81.1577V36.2093H84.2652ZM81.1577 34.2134H80.2362H73.3899V31.7668C78.4646 31.7668 83.5392 31.7668 88.6138 31.7668C91.0367 31.7517 91.936 32.7329 92.072 34.2134H87.6151H84.2652H81.1577ZM102.22 31.7668V45.7487H114.261C114.261 41.0875 114.261 36.4271 114.261 31.7668C116.459 31.9218 117.324 32.9452 117.406 34.4751V44.3437C117.406 45.8648 117.128 46.8881 116.565 47.4249C116.002 47.9624 114.933 48.2343 113.368 48.2343H103.152C101.586 48.2343 100.518 47.9624 99.9543 47.4185C99.3913 46.8746 99.113 45.8521 99.113 44.3437V31.7668H102.22ZM130.513 40.8156V45.8258H130.514V48.2343H127.406V31.7668H141.304C142.573 31.7668 143.492 32.0252 144.068 32.5365C144.638 33.0478 144.923 33.8636 144.923 34.9895V36.8867C144.923 37.7606 144.697 38.4206 144.236 38.8738C143.777 39.3207 143.052 39.6054 142.049 39.7151C143.026 39.8193 143.771 40.1429 144.275 40.6931C144.787 41.2434 145.039 41.9813 145.039 42.9005V45.0108C145.039 46.0978 144.645 46.9072 143.861 47.4384C143.071 47.9687 141.874 48.2343 140.262 48.2343H132.522C132.555 46.5892 133.544 45.8377 135.556 45.8258H140.055C140.761 45.8258 141.253 45.6906 141.525 45.4187C141.796 45.1468 141.932 44.6609 141.932 43.9683V42.6738C141.932 41.994 141.789 41.5082 141.511 41.2298C141.233 40.9515 140.748 40.8156 140.055 40.8156H130.513ZM141.816 37.0808V35.5207C141.816 35.0158 141.686 34.6659 141.433 34.4655C141.181 34.2715 140.722 34.1745 140.055 34.1745H130.513V38.4079H140.055C140.773 38.4079 141.246 38.3109 141.472 38.1232C141.699 37.9355 141.816 37.5857 141.816 37.0808ZM151.653 48.2343L161.169 31.7668H164.011L173.753 48.2343H170.381L168.238 44.389H159.16C159.435 42.6691 160.64 41.9932 162.777 42.0202H166.911L162.535 34.1808L154.761 48.2343H151.653Z" fill="#3D2D20"/>
<path fill-rule="evenodd" clip-rule="evenodd" d="M181.49 24.8401H156.407C155.075 24.8401 153.987 23.7515 153.987 22.4204V22.4196C153.987 21.0886 155.076 20 156.407 20H183.91H183.911C183.932 20 183.953 20 183.972 20.0008H183.973C183.994 20.0016 184.015 20.0024 184.034 20.0032H184.035C184.055 20.004 184.076 20.0056 184.096 20.0072H184.096C184.116 20.0087 184.137 20.0103 184.157 20.0127H184.158C184.178 20.0143 184.197 20.0167 184.217 20.0199H184.218C184.238 20.0223 184.258 20.0246 184.278 20.0278C184.298 20.031 184.318 20.0342 184.337 20.0382H184.338C184.357 20.0413 184.377 20.0453 184.396 20.0493H184.397C184.416 20.0533 184.436 20.058 184.455 20.062H184.456C184.475 20.0668 184.494 20.0716 184.513 20.0763C184.571 20.0914 184.628 20.1089 184.685 20.128L184.741 20.1471C184.796 20.1678 184.851 20.19 184.904 20.2147C184.922 20.2226 184.94 20.2314 184.958 20.2393C185.063 20.291 185.164 20.3491 185.261 20.4151C185.277 20.4254 185.293 20.4365 185.309 20.4477C185.325 20.4588 185.341 20.4707 185.356 20.4827C185.418 20.5288 185.478 20.5781 185.536 20.6306C185.564 20.6568 185.592 20.6838 185.62 20.7109C185.634 20.7244 185.647 20.7387 185.661 20.7522C185.674 20.7665 185.687 20.7808 185.7 20.7951C185.713 20.8095 185.726 20.8238 185.738 20.8389C185.751 20.8532 185.764 20.8683 185.777 20.8826L185.813 20.9279C185.849 20.9741 185.883 21.021 185.916 21.0695C185.938 21.1013 185.959 21.1347 185.979 21.1673C185.99 21.184 185.999 21.2007 186.009 21.2182C186.038 21.2683 186.065 21.3199 186.092 21.3732C186.099 21.3907 186.108 21.409 186.116 21.4265C186.132 21.4623 186.148 21.4981 186.162 21.5346L186.183 21.5903H186.184C186.19 21.6086 186.196 21.6269 186.203 21.646C186.216 21.6833 186.227 21.7215 186.239 21.7597C186.244 21.7787 186.25 21.7978 186.255 21.8169C186.259 21.836 186.264 21.8559 186.269 21.875C186.273 21.8948 186.278 21.9139 186.282 21.9338C186.286 21.9537 186.29 21.9736 186.293 21.9934C186.297 22.0133 186.3 22.0324 186.303 22.0531C186.306 22.073 186.309 22.0928 186.311 22.1127C186.314 22.1334 186.317 22.1533 186.318 22.1731V22.1739C186.321 22.1938 186.322 22.2137 186.324 22.2344C186.325 22.255 186.327 22.2757 186.328 22.2964C186.328 22.3163 186.329 22.3369 186.33 22.3576C186.331 22.3783 186.331 22.399 186.331 22.4196V22.4204V22.4268V57.574V57.5796V57.5804C186.331 58.9114 185.242 60 183.911 60H156.18C154.849 60 153.761 58.9114 153.761 57.5804V57.5796C153.761 56.2485 154.849 55.1599 156.18 55.1599H181.49V24.8401Z" fill="#3D2D20"/>
<path fill-rule="evenodd" clip-rule="evenodd" d="M38.5148 55.117L63.688 55.117C65.0247 55.117 66.1171 56.2043 66.1171 57.5337L66.1171 57.5345C66.1171 58.8639 65.0239 59.9512 63.688 59.9512L36.0857 59.9512L36.0849 59.9512C36.0642 59.9512 36.0434 59.9512 36.0235 59.9504L36.0227 59.9504C36.0019 59.9496 35.9812 59.9488 35.9612 59.948L35.9604 59.948C35.9405 59.9472 35.9197 59.9456 35.8998 59.944L35.899 59.944C35.879 59.9424 35.8583 59.9409 35.8383 59.9385L35.8375 59.9385C35.8176 59.9369 35.7976 59.9345 35.7777 59.9313L35.7769 59.9313C35.7569 59.9289 35.737 59.9266 35.717 59.9234C35.6971 59.9202 35.6771 59.917 35.6572 59.9131L35.6564 59.9131C35.6372 59.9099 35.6173 59.9059 35.5981 59.9019L35.5973 59.9019C35.5782 59.898 35.5582 59.8932 35.5391 59.8892L35.5383 59.8892C35.5191 59.8845 35.5 59.8797 35.4808 59.8749C35.4226 59.8598 35.3651 59.8424 35.3085 59.8233L35.2526 59.8043C35.1967 59.7836 35.1417 59.7614 35.0882 59.7367C35.0706 59.7288 35.0523 59.7201 35.0347 59.7121C34.9286 59.6605 34.8273 59.6025 34.7299 59.5366C34.7139 59.5263 34.698 59.5152 34.682 59.5041C34.6661 59.4929 34.6501 59.481 34.6349 59.4691C34.5727 59.423 34.512 59.3738 34.4546 59.3214C34.4259 59.2952 34.3979 59.2682 34.37 59.2412C34.3564 59.2277 34.3429 59.2134 34.3293 59.1999C34.3157 59.1856 34.303 59.1713 34.2894 59.157C34.2766 59.1427 34.2639 59.1284 34.2511 59.1133C34.2383 59.099 34.2256 59.0839 34.2128 59.0696L34.1761 59.0244C34.1402 58.9783 34.1059 58.9315 34.0731 58.883C34.0508 58.8512 34.03 58.8179 34.0093 58.7853C33.9989 58.7686 33.9893 58.752 33.9798 58.7345C33.9502 58.6845 33.9231 58.6328 33.8968 58.5796C33.8888 58.5622 33.88 58.5439 33.872 58.5264C33.8561 58.4907 33.8401 58.4549 33.8258 58.4184L33.805 58.3628L33.8042 58.3628C33.7978 58.3446 33.7914 58.3263 33.7851 58.3072C33.7723 58.2699 33.7603 58.2318 33.7491 58.1937C33.7436 58.1746 33.738 58.1555 33.7332 58.1365C33.7284 58.1174 33.7236 58.0976 33.7188 58.0785C33.7148 58.0587 33.71 58.0396 33.706 58.0197C33.7021 57.9999 33.6981 57.98 33.6949 57.9602C33.6909 57.9403 33.6877 57.9213 33.6845 57.9006C33.6813 57.8808 33.6789 57.8609 33.6765 57.8411C33.6733 57.8204 33.6709 57.8005 33.6693 57.7807L33.6693 57.7799C33.6669 57.76 33.6654 57.7402 33.6638 57.7195C33.6622 57.6989 33.6606 57.6782 33.6598 57.6576C33.659 57.6377 33.6582 57.6171 33.6574 57.5964C33.6566 57.5758 33.6566 57.5551 33.6566 57.5345L33.6566 57.5337L33.6566 57.5274L33.6566 22.4232L33.6566 22.4176L33.6566 22.4169C33.6566 21.0874 34.749 20.0002 36.0849 20.0002L63.9154 20.0002C65.2513 20.0002 66.3437 21.0874 66.3437 22.4169L66.3437 22.4176C66.3437 23.7471 65.2513 24.8343 63.9154 24.8343L38.5148 24.8343L38.5148 55.117Z" fill="#3D2D20"/>
</g>
<defs>
<clipPath id="clip0_2_1380">
<rect width="152.684" height="40" fill="white" transform="translate(33.6582 20)"/>
</clipPath>
</defs>
</svg>
