<svg width="180" height="80" viewBox="0 0 180 80" fill="none" xmlns="http://www.w3.org/2000/svg">
<g clip-path="url(#clip0_2_1373)">
<path d="M113.055 31.165C105.742 31.165 100.349 36.4339 100.349 43.4763C100.349 50.5185 105.741 55.7875 113.055 55.7875C120.368 55.7875 125.76 50.5185 125.76 43.4763C125.76 36.4339 120.368 31.165 113.055 31.165ZM113.055 48.7206C110.099 48.7206 108.031 46.4804 108.031 43.4763C108.031 40.4721 110.099 38.3051 113.055 38.3051C116.01 38.3051 118.078 40.5455 118.078 43.4763C118.078 46.407 116.01 48.7206 113.055 48.7206Z" fill="#3D2D20"/>
<path d="M127.385 55.7301C128.832 55.7301 130.005 54.557 130.005 53.11C130.005 51.6633 128.832 50.4902 127.385 50.4902C125.938 50.4902 124.766 51.6633 124.766 53.11C124.766 54.557 125.938 55.7301 127.385 55.7301Z" fill="#3D2D20"/>
<path d="M86.3266 31.1646C83.6218 31.1646 81.18 31.8865 79.1773 33.151V24H71.7251V55.3224H79.1773V53.7969C81.1812 55.0615 83.6218 55.7835 86.3266 55.7835C93.6381 55.7835 99.0304 50.5147 99.0304 43.4746C99.0304 36.4347 93.6392 31.1657 86.3266 31.1657V31.1646ZM85.7446 48.718C82.7903 48.718 80.7224 46.4776 80.7224 43.4746C80.7224 40.4716 82.7903 38.3047 85.7446 38.3047C88.6986 38.3047 90.7665 40.545 90.7665 43.4746C90.7665 46.4042 88.6986 48.718 85.7446 48.718Z" fill="#3D2D20"/>
<path d="M64.9597 48.9637C62.9161 48.9637 61.4641 48.1754 61.4641 45.6161V37.9846H68.3818V37.9777L66.9904 36.4185L65.571 34.8279L66.9904 33.2374L68.3807 31.6794V31.6573H61.2173V24.0747H53.7092V31.6573H49.9424V37.9846H53.7092V46.8725C53.7092 53.1742 57.6239 55.7849 63.0396 55.7849C65.2554 55.7849 67.7915 55.2434 69.3169 54.4551L68.2934 48.3373C67.1115 48.8054 66.0926 48.9649 64.9597 48.9649V48.9637Z" fill="#3D2D20"/>
<path d="M65.5718 34.8273L66.99 36.4178L68.3815 37.977L67.245 34.8645L68.3803 31.6787L66.99 33.2379L65.5718 34.8273Z" fill="#3D2D20"/>
</g>
<defs>
<clipPath id="clip0_2_1373">
<rect width="80.1168" height="32" fill="white" transform="translate(49.9414 24)"/>
</clipPath>
</defs>
</svg>
