<svg width="220" height="80" viewBox="0 0 220 80" fill="none" xmlns="http://www.w3.org/2000/svg">
<mask id="mask0_2_1392" style="mask-type:luminance" maskUnits="userSpaceOnUse" x="20" y="23" width="180" height="37">
<path d="M199.07 23.9995H20.2129V59.9995H199.07V23.9995Z" fill="white"/>
</mask>
<g mask="url(#mask0_2_1392)">
<path d="M45.7422 23.9995C49.397 23.9998 52.3457 26.9633 52.3457 30.604V49.5278C52.3598 53.1827 49.397 56.1467 45.7422 56.147H26.8174C23.1765 56.147 20.2129 53.1829 20.2129 49.5278V30.604C20.2129 26.9631 23.1765 23.9995 26.8174 23.9995H45.7422ZM29.1328 29.7847C28.8224 29.7847 28.6389 29.8978 28.4414 30.0952L25.3789 33.186C25.1532 33.4118 25.3088 33.7505 25.6475 33.7505H39.5479L30.9248 42.3726C30.7697 42.5277 30.6993 42.6832 30.6992 42.937V45.2095C30.6992 45.4774 30.8825 45.6605 31.1504 45.6606H33.4229C33.6909 45.6606 33.8462 45.5903 33.9873 45.4351L42.6094 36.813V50.7134C42.6095 51.052 42.949 51.2067 43.1748 50.981L46.2646 47.9048C46.448 47.7072 46.5615 47.5238 46.5615 47.2134V31.8452C46.5614 30.7022 45.644 29.7848 44.501 29.7847H29.1328ZM26.4619 46.3247C26.2081 46.3249 26.0107 46.5229 26.0107 46.7769V49.895C26.0107 50.1489 26.2081 50.347 26.4619 50.3472H29.5811C29.835 50.3472 30.0322 50.1491 30.0322 49.895V46.7769C30.0322 46.5228 29.835 46.3247 29.5811 46.3247H26.4619Z" fill="#3D2D20"/>
<path d="M93.215 43.2484L99.5089 34.5554C99.6924 34.2872 99.5513 34.019 99.2408 34.019H95.8116C95.6282 34.019 95.3882 34.0897 95.2753 34.2872L91.1264 40.3413L86.8786 34.2872C86.7657 34.1037 86.5399 34.019 86.3424 34.019H82.6873C82.5039 34.019 82.3768 34.1743 82.3768 34.3295C82.3768 34.4001 82.3768 34.4847 82.4474 34.5554L88.7556 43.2767L81.7983 52.8447C81.6148 53.1127 81.7559 53.3809 82.0241 53.3809H85.4815C85.665 53.3809 85.9049 53.3104 86.0178 53.1127L90.83 46.1837L95.7128 53.1127C95.8257 53.3104 96.0515 53.3809 96.2491 53.3809H99.9323C100.116 53.3809 100.243 53.2257 100.243 53.0705C100.243 52.9999 100.2 52.9152 100.172 52.8447L93.215 43.2484Z" fill="#3D2D20"/>
<path d="M79.1592 26.7515C79.4274 26.7515 79.6108 26.9349 79.6108 27.2031V29.7856C79.6108 30.0537 79.4274 30.2372 79.1592 30.2372H66.8676V37.9141H77.9033C78.1714 37.9141 78.3549 38.0976 78.3549 38.3658V40.9341C78.3549 41.2023 78.1714 41.3857 77.9033 41.3857H66.8676V49.7966H79.1592C79.4274 49.7966 79.6108 49.98 79.6108 50.2482V52.9153C79.6108 53.1835 79.4274 53.3669 79.1592 53.3669H64.779C63.6783 53.3669 62.8457 52.5343 62.8457 51.4335V28.6848C62.8457 27.5841 63.6783 26.7515 64.779 26.7515H79.1592Z" fill="#3D2D20"/>
<path d="M113.197 33.4126C109.472 33.4126 107.496 35.0495 106.353 36.5737V34.471C106.353 34.2028 106.17 34.0194 105.902 34.0194H102.895C102.627 34.0194 102.444 34.2169 102.444 34.471V59.534C102.444 59.8022 102.627 59.9857 102.895 59.9857H105.943C106.211 59.9857 106.395 59.8022 106.395 59.534V50.8974C107.496 52.4215 109.472 53.9457 113.197 53.9457C119.251 53.9457 122.779 49.3875 122.779 43.6721C122.779 37.9567 119.251 33.4126 113.197 33.4126ZM112.52 50.6717C108.794 50.6717 106.24 48.1597 106.24 43.7144C106.24 39.2691 108.794 36.6724 112.52 36.6724C116.245 36.6724 118.758 39.255 118.758 43.7144C118.758 48.1597 116.245 50.6717 112.52 50.6717Z" fill="#3D2D20"/>
<path d="M134.775 33.4126C129.483 33.4126 125.263 37.2228 125.263 43.531C125.263 49.9943 128.988 53.9598 135.268 53.9598C138.881 53.9598 141.887 52.3651 143.75 50.1495C143.862 50.0366 143.905 49.9237 143.905 49.8108C143.905 49.698 143.862 49.585 143.75 49.4722L142 47.7505C141.887 47.6375 141.774 47.5952 141.661 47.5952C141.548 47.5952 141.435 47.6658 141.323 47.7787C139.883 49.3451 138.006 50.6717 135.311 50.6717C131.373 50.6717 129.483 48.2444 129.186 44.7446H143.792C144.06 44.7446 144.244 44.547 144.244 44.293V43.531C144.244 37.7449 140.744 33.4126 134.775 33.4126ZM129.327 41.781C129.779 38.6058 131.444 36.5313 134.747 36.5313C138.133 36.5313 139.925 38.4647 140.179 41.781H129.327Z" fill="#3D2D20"/>
<path d="M198.632 34.019H195.626C195.358 34.019 195.174 34.2025 195.174 34.4706V36.6015C194.031 35.0774 192.056 33.4404 188.245 33.4404C182.276 33.4404 178.734 37.9986 178.734 43.714C178.734 49.4295 182.276 53.9877 188.245 53.9877C192.056 53.9877 194.031 52.3506 195.174 50.8266V52.9152C195.174 53.1832 195.358 53.3667 195.626 53.3667H198.632C198.9 53.3667 199.084 53.1832 199.084 52.9152V34.4706C199.097 34.2025 198.9 34.019 198.632 34.019ZM189.007 50.7136C185.282 50.7136 182.77 48.1312 182.77 43.6717C182.77 39.2264 185.282 36.7144 189.007 36.7144C192.733 36.7144 195.287 39.2264 195.287 43.6717C195.287 48.1312 192.733 50.7136 189.007 50.7136Z" fill="#3D2D20"/>
<path d="M166.614 26.7515H163.565C163.297 26.7515 163.114 26.9349 163.114 27.2031V36.6017C161.97 35.0776 160.038 33.4406 156.227 33.4406C150.258 33.4406 146.716 37.9988 146.716 43.7142C146.716 49.4296 150.258 53.9878 156.227 53.9878C160.038 53.9878 162.013 52.3509 163.156 50.8267V52.9153C163.156 53.1835 163.34 53.3669 163.608 53.3669H166.614C166.882 53.3669 167.065 53.1835 167.065 52.9153V27.2031C167.065 26.9349 166.882 26.7515 166.614 26.7515ZM156.989 50.7139C153.264 50.7139 150.752 48.1313 150.752 43.6719C150.752 39.2265 153.264 36.7146 156.989 36.7146C160.715 36.7146 163.269 39.2265 163.269 43.6719C163.269 48.1313 160.715 50.7139 156.989 50.7139Z" fill="#3D2D20"/>
<path d="M174.897 26.7515C175.165 26.7515 175.348 26.9349 175.348 27.2031V30.3219C175.348 30.5899 175.165 30.7734 174.897 30.7734H171.778C171.51 30.7734 171.327 30.5899 171.327 30.3219V27.2031C171.327 26.9349 171.51 26.7515 171.778 26.7515H174.897Z" fill="#3D2D20"/>
<path d="M174.867 34.019C175.135 34.019 175.318 34.2025 175.318 34.4707V52.9152C175.318 53.1833 175.135 53.3668 174.867 53.3668H171.818C171.55 53.3668 171.366 53.1833 171.366 52.9152V34.4707C171.366 34.2025 171.55 34.019 171.818 34.019H174.867Z" fill="#3D2D20"/>
</g>
</svg>
