<svg width="239" height="550" viewBox="0 0 239 550" fill="none" xmlns="http://www.w3.org/2000/svg">
<g clip-path="url(#clip0_34_2730)">
<path d="M688.276 597.249C696.477 602.009 705.029 603.32 713.971 605.161C725.329 610.375 735.932 615.59 748.113 619.017C756.897 625.193 766.909 620.857 776.636 625.148C778.507 625.64 792.102 627.882 785.45 628.515C761.746 628.068 738.55 623.941 715.22 621.915C708.853 620.552 714.382 618.719 717.039 618.883C719.889 617.81 732.482 622.123 727.304 617.371C708.134 610.636 690.461 600.81 671.65 593.181C665.402 591.751 660.569 593.83 654.867 590.909C631.574 579.407 608.491 561.297 583.881 554.823C583.881 559.047 587.383 568.426 585.101 571.592C583.432 570.989 581.008 566.839 579.377 568.031C578.748 568.903 578.03 570.534 576.773 570.065C572.283 569.246 566.163 560.142 563.507 568.136C561.397 577.694 568.834 578.975 575.755 581.567C582.198 583.385 586.365 587.05 591.91 589.539C595.217 588.294 591.057 581.046 598.517 589.136C607.803 599.409 624.451 599.923 637.747 603.738C650.939 609.459 665.447 611.374 678.863 616.64C535.852 621.93 440.66 506.855 353.887 400.332C342.932 390.476 336.692 378.4 328.401 366.056C320.38 351.849 305.842 344.139 295.434 332.443C289.942 328.219 283.552 321.089 277.207 317.916C276.264 318.057 277.528 319.249 277.828 319.771C295.202 335.743 270.315 336.704 264.479 350.024C260.775 359.239 254.669 366.495 247.943 373.691C238.141 397.411 215.926 413.205 195.259 428.074C191.817 432.44 160.339 443.212 178.543 446.81C211.518 437.945 256.952 442.243 267.143 481.034C272.343 500.142 253.218 460.249 248.654 459.996C248.197 459.855 248.063 460.167 248.242 460.875C255.395 473.42 241.396 468.779 252.851 480.669C263.536 498.422 235.634 468.414 230.748 473.428C231.616 477.994 248.901 486.74 248.983 492.655C242.324 489.534 235.327 483.008 228.099 480.483C213.853 475.119 198.604 472.735 184.11 468.22C181.028 467.423 183.272 470.806 181.641 472.169C142.785 475.953 176.59 478.941 145.583 498.638C134.569 506.616 120.712 512.68 113.671 525.151C111.501 528.645 109.308 531.781 105.395 533.487C68.0129 536.326 30.6083 540.892 -6.42221 549.124C-20.1001 552.156 -38.0953 551.232 -49.0795 560.723C-60.6099 581.508 -53.2472 579.4 -78.6201 583.095C-85.4291 585.695 -89.9485 592.563 -97.7153 593.181C-104.659 594.381 -111.116 589.866 -117.476 589.419C-130.645 595.603 -140.028 585.173 -150.212 578.453C-158.323 574.587 -167.377 579.66 -175.794 579.914C-194.875 581.448 -215.017 579.876 -230.753 568.411C-232.953 566.616 -234.172 564.85 -233.626 564.053C-232.459 562.899 -229.488 564.068 -227.588 564.12C-223.263 564.672 -227.692 560.224 -229.062 557.922C-237.277 546.316 -241.161 531.364 -248.381 519.497C-249.451 511.66 -258.206 505.998 -255.475 497.669C-251.546 482.613 -239.784 466.872 -225.829 459.311C-220.509 459.72 -218.093 454.535 -215.698 450.557C-209.271 442.124 -211.882 436.343 -218.1 428.097C-220.427 423.262 -218.332 424.297 -214.516 421.861C-212.406 420.297 -210.894 418.092 -208.769 416.475C-199.394 412.825 -195.772 396.592 -210.011 399.05C-213.536 399.631 -216.491 399.192 -213.319 395.385C-195.346 381.789 -168.828 383.622 -148.551 374.883C-121.652 353.875 -98.4859 333.739 -84.636 302.428C-78.2684 291.32 -69.8582 280.958 -64.1865 269.523C-58.455 257.275 -57.4224 238.189 -39.4272 243.404C-6.01816 240.73 -17.0547 211.899 27.5705 226.53C31.4164 222.828 33.0999 206.312 37.2826 199.719C38.4349 196.434 39.273 198.646 40.9789 199.041C45.5881 182.898 59.4979 171.835 73.6023 162.88C76.6177 161.182 80.0222 160.921 77.366 165.19C74.156 170.099 67.6388 174.561 63.5609 178.905C56.6546 178.569 29.7852 241.81 42.6999 227.648C50.0252 214.417 54.612 199.309 65.7533 188.232C73.5575 182.101 82.701 172.885 93.1689 172.96C90.9316 177.847 80.2093 179.247 76.8497 183.68C64.8254 193.99 58.3531 212.004 48.6634 224.743C48.0424 226.002 44.1665 230.501 46.299 231.015C54.2528 223.193 60.7101 212.585 70.4896 205.977C81.5786 194.996 93.7824 179.955 110.812 180.357C117.18 180.685 169.886 178.681 142.179 182.905C104.924 180.745 86.6217 191.36 64.7731 220.928C63.6283 222.083 61.5182 225.011 62.0345 225.324C71.1256 225.435 76.4232 213.24 84.4219 209.24C93.4233 203.414 104.363 197.35 115.04 194.042C123.877 190.861 169.849 185.974 162.725 174.047C168.39 169.071 176.792 174.941 183.571 170.598C204.926 156.563 227.531 136.628 245.07 119.173C256.173 105.414 259.877 98.3289 276.496 91.6763C279.459 88.8827 280.319 83.8914 284.973 84.5916C288.984 84.9492 289.62 81.5373 293.601 80.3081C296.339 79.4663 299.661 79.3844 302.303 78.2148C303.919 77.5219 304.869 77.0004 305.67 75.7191C306.298 74.028 304.42 71.8229 306.65 70.8247C312.284 71.6292 354.702 56.0817 343.651 67.4723C338.316 72.7914 330.459 76.3076 324.578 81.0233C286.32 111.835 248.07 146.841 216.996 182.585C228.451 182.711 251.123 156.146 259.87 146.64C269.545 133.022 272.508 133.931 285.542 127.949C292.545 122.876 302.048 115.858 308.82 110.837C310.578 109.377 314.417 106.397 311.918 104.974C306.201 96.7719 339.857 76.7322 346.928 69.7146C355.847 62.2575 367.639 53.966 379.686 58.8456C388.949 60.9911 399.754 51.4555 410.027 52.8486C432.385 53.303 454.69 51.0905 476.972 49.3547C478.865 49.31 480.04 49.4366 480.354 50.9117C481.911 58.3092 492.857 52.5432 498.574 54.3758C510.755 62.4066 524.605 64.0902 538.972 59.5607C546.237 57.7356 556.458 52.64 563.207 56.2233C568.535 67.45 563.604 81.1202 553.36 87.5194C544.793 91.7509 535.133 85.0238 525.952 85.7091C499.105 92.8236 470.388 90.2385 444.364 101.316C438.55 104.385 424.715 110.099 439.179 101.055C451.36 93.7846 468.263 92.9949 481.252 88.9348C473.59 74.4154 397.374 90.0001 378.317 89.5085C378.129 89.5308 357.56 91.6689 364.564 94.0081C369.263 94.8425 379.828 90.2087 371.493 98.2619C352.091 106.933 336.617 123.025 325.393 140.949C303.215 160.698 328.858 156.608 342.296 153.345C365.35 145.508 394.366 154.865 410.745 133.648C415.182 129.707 429.474 126.191 426.646 119.27C425.112 118.547 422.687 118.816 420.951 118.667C413.462 118.823 419.096 112.245 423.076 112.17C432.018 113.079 441.296 111.098 450.327 110.241C473.209 108.595 442.433 127.547 434.652 127.658C429.422 128.679 417.727 139.176 428.441 140.219C439.411 139.764 449.108 135.063 458.633 130.511C471.503 123.896 475.536 107.388 488.046 100.288C504.642 92.0488 473.92 111.925 471.316 127.383C467.642 136.307 477.631 131.867 481.02 128.746C484.859 125.468 486.565 120.142 488.809 115.679C494.174 103.357 507.261 92.8459 521.134 94.0379C544.449 98.4406 567.936 96.5559 591.251 93.0545C625.626 89.1807 660.374 92.7118 694.584 88.4729C702.755 87.5417 711.808 79.9803 720.002 80.8072C728.831 65.9674 740.503 50.42 743.242 33.0101C747.724 13.8271 749.011 35.9527 747.245 42.0614C746.474 49.5558 744.783 57.8473 741.124 64.6488C738.663 70.7576 726.466 80.1144 728.457 85.2398C733.575 82.3121 736.717 74.6166 739.994 70.3703C743.743 65.4758 747.844 61.1699 749.175 54.86C750.979 49.1088 750.058 42.4115 751.892 36.7349C753.964 32.2949 756.142 28.1379 755.775 23.02C753.949 10.4152 763.25 -7.12137 765.375 15.548C761.574 27.6314 757.002 103.566 766.22 53.2732C767.507 49.5111 769.827 46.3301 770.568 42.3595C770.605 33.7923 774.025 26.1489 775.177 17.768C775.454 13.842 774.855 5.5654 779.749 4.87258C789.693 8.9848 772.558 66.2133 767.448 75.734C760.407 90.9165 771.915 88.5773 776.486 76.5833C786.011 61.8925 778.836 94.6711 780.983 98.6716C782.944 101.182 788.66 98.7088 791.331 97.8967C799.233 94.3433 801.44 79.4588 808.092 75.6148C815.036 87.4374 809.102 103.566 810.434 116.648C811.137 119.404 813.592 115.56 815.447 116.007C821.703 122.935 825.197 107.224 828.833 103.171C830.038 101.704 833.128 96.5633 834.281 100.34C835.156 102.21 835.74 104.14 836.039 106.24C835.493 113.161 845.407 109.243 839.039 118.667C837.423 122.391 833.592 127.971 833.061 131.525C838.246 130.616 841.733 121.177 847.143 120.514C853.069 120.603 849.597 128.686 848.295 132.21C847.487 145.932 794.833 189.826 815.178 175.835C843.185 152.436 869.381 121.356 879.908 85.9177C879.931 78.5052 884.188 72.9925 888.087 67.0625C889.98 63.7251 899.071 40.862 897.41 55.8359C893.04 74.3036 881.3 89.7245 875.135 107.373C874.588 108.893 871.715 114.904 874.723 111.418C875.651 110.844 883.186 98.6641 883.186 102.687C883.32 110.166 869.194 126.176 871.753 129.856C873.773 128.612 877.005 123.449 879.07 124.097C867.562 147.311 903.65 102.128 906.65 97.6137C937.486 57.4972 897.11 116.439 890.264 126.489C887.697 133.551 903.239 112.938 903.066 117.206C900.32 124.999 894.379 132.694 894.192 141.023C894.798 143.668 900.283 133.752 901.922 135.182C902.939 137.507 900.455 142.118 899.625 144.793C896.901 153.978 910.422 133.931 911.342 131.45C911.843 130.482 916.625 121.117 916.003 126.541C911.649 136.412 907.137 146.923 902.453 156.839C898.981 166.404 912.644 145.992 914.806 153.151C915.689 155.572 914.043 155.222 912.098 154.984C910.489 155.632 912.996 160.146 914.462 160.884C929.203 167.097 938.84 125.766 945.297 116.156C952.331 103.559 949.495 124.477 945.38 128.463C943.808 132.068 933.482 150.365 943.322 146.29C946.502 145.47 946.42 136.658 949.196 138.066C952.091 141.381 932.996 168.341 942.364 162.232C945.866 158.075 945.993 158.493 950.902 158.515C954.014 156.481 958.795 149.918 955.788 146.64C954.822 145.791 953.932 145.098 954.792 144.584C961.377 141.708 963.951 141.083 968.149 134.221C976.057 124.932 984.116 114.711 992.863 106.449C977.345 130.541 959.634 155.401 942.903 179.538C933.887 200.211 916.408 214.79 904.084 233.28C883.492 259.912 851.887 276.473 819.75 285.241C790.426 306.749 907.593 265.001 913.19 236.908C931.38 232.527 938.66 212.719 951.837 201.604C957.756 198.855 957.606 198.021 961.182 192.545C966.098 188.194 969.383 181.192 974.419 177.221C976.424 176.022 973.88 182.659 977.315 179.068C979.986 176.483 982.245 172.93 984.587 169.533C997.786 148.1 1013.35 128.612 1029.86 109.548C1031.58 106.389 1042.98 91.9519 1043.42 101.018C1035.3 103.454 1038.39 115.485 1030.93 120.186C1029.15 121.505 1029.08 118.771 1027.75 118.354C1026.11 117.944 1022.95 121.281 1021.12 123.293C1009.84 138.408 990.641 165.629 979.454 184.984C985.261 180.693 991.756 174.971 998.355 170.725C1006.04 164.653 996.41 182.16 1003.2 180.372C1006.83 178.242 1006.14 184.455 1009.39 182.16C1025.21 167.179 1041.51 151.922 1056.77 136.315C1060.68 133.909 1059.08 125.692 1061.35 125.282C1072.76 126.183 1091.56 105.026 1104.64 99.2824C1109.24 92.466 1107.27 88.1303 1117.12 86.2604C1118.85 88.0334 1108.44 95.9375 1117.41 93.062C1123.45 91.4677 1124.8 82.6324 1130.26 81.7011C1128.53 88.6293 1139.7 85.6868 1142.38 82.7069C1142.9 81.4777 1140.94 81.7906 1139.92 81.7533C1131.95 81.5745 1148.53 75.1902 1147.78 72.0688C1145.44 68.3439 1117.26 85.0238 1124.64 72.8435C1123.78 68.8207 1089.96 89.3147 1104.61 77.4623C1111.11 71.8676 1122.39 70.6309 1127.73 64.5967C1117.14 65.5354 1105.53 72.8882 1095.84 77.7826C1094.09 78.5797 1088.14 82.245 1088.43 79.4961C1089.18 73.2979 1137.27 60.8868 1122.09 57.1172C1106.16 54.3236 1118.82 47.5221 1096.96 57.974C1095.39 58.637 1090.97 60.8942 1090.61 60.1493C1091.24 59.4192 1092.75 58.3762 1093.83 57.6313C1103.51 49.4366 1119.31 46.3002 1129.16 40.9737C1126.96 39.1411 1110.64 45.1456 1113.13 41.5399C1119.5 34.1796 1138.43 37.748 1142.14 29.7992C1140.39 29.2181 1133.07 31.5722 1132.1 30.7826C1130.49 29.6502 1135.47 24.942 1133.98 23.8395C1116.27 28.0336 1097.88 32.7493 1080.8 40.6907C1073.58 44.2442 1054.65 59.3372 1068.14 41.0706C1062.52 39.6701 1050.39 52.5655 1046.09 48.7363C1047.91 45.302 1054.95 43.8717 1055.69 40.4299C1026.32 46.6579 1013.13 78.2222 988.239 91.0505C984.864 91.5497 955.473 131.957 964.602 111.239C988.157 77.3431 1022.15 52.6399 1056.72 31.1476C1059.76 29.0095 1064.6 27.4899 1066.16 24.1003C1065.82 23.0201 1061.85 23.3702 1063.16 21.9398C1090.33 6.93615 1120.35 -7.79929 1151.36 -13.1407L1151.39 -13.1854C1164.06 -12.9917 1178.1 -16.806 1190.22 -14.2433C1194.38 -9.82564 1189.58 -0.23788 1183.02 -1.19889C1166.05 -6.45091 1165.04 1.72885 1149.78 1.69905C1145.21 -4.65553 1135.56 2.02685 1130.25 5.11102C1122.23 5.79639 1114.3 9.91606 1107.03 13.0747C1103.49 13.6856 1071.68 29.0021 1087.13 27.3408C1088.5 27.4302 1106.49 20.2264 1099.16 25.6274C1097.41 27.0727 1081.78 32.4885 1087.09 33.5687C1094.37 30.8198 1103.06 28.7712 1109.33 24.361C1110.46 22.4613 1108.41 20.6957 1111.53 19.243C1174.68 -4.68537 1205.71 -5.2441 1260.86 37.0775C1269.96 39.5881 1279.91 44.5943 1287.26 50.9638C1283.11 51.7535 1278 44.9295 1273.09 45.2126C1273.27 47.44 1281.05 51.4182 1283.53 53.2806C1305.55 71.8974 1263.31 44.5645 1254.68 43.0298C1242.18 41.2345 1260.67 54.3906 1264.34 54.7705C1271.68 57.445 1321.78 92.2201 1292 77.5889C1289.05 78.0657 1297.97 83.8839 1300.25 84.9939C1310.61 90.1938 1322.96 93.7696 1329.95 103.64C1331.22 107.984 1327.03 102.918 1323.6 101.301C1303.3 92.8087 1285.19 78.9373 1265.69 68.843C1227.66 57.0502 1310.06 98.6864 1310.79 104.318C1310.62 107.134 1305.21 105.637 1313.97 110.956C1320.88 114.368 1326.87 119.255 1332.93 123.859C1341.62 127.964 1350.63 131.025 1356.94 138.758C1360.05 141.686 1364.95 144.696 1367.34 147.303C1370.52 150.79 1369.24 155.781 1374.29 157.986C1377.38 160.191 1376.2 155.356 1376.72 154.671C1378.99 155.527 1382.23 159.036 1382.56 161.577C1383.24 164.318 1381.29 166.709 1383.48 167.499C1390.56 168.728 1386.18 170.278 1387.42 174.554C1390.17 177.511 1402.41 182.384 1400 188.254C1396.3 189.252 1394.52 184.574 1392.28 182.309C1383.63 178.987 1374.52 174.241 1367.51 167.752C1358.26 165.301 1382.26 183.084 1383.59 183.65C1396.85 193.372 1408.83 204.099 1419.04 216.324C1420.11 218.477 1418.12 220.735 1416.39 219.55C1415.49 218.745 1414.7 216.324 1413.78 215.363C1398.41 212.801 1388.1 196.784 1373.28 191.964C1370.3 191.241 1372.75 198.147 1369 195.808C1366.11 195.212 1349.91 179.754 1355.57 189.215C1377.59 211.586 1407.19 226.463 1426.01 252.522C1435.21 269.999 1415.42 248.73 1408.74 244.991C1400.51 239.098 1402.5 246.19 1408.41 249.759C1417.6 258.951 1429.85 265.522 1439.12 274.432C1440.38 279.565 1444.14 279.282 1447.35 282.381C1450.67 291.618 1461.29 296.751 1469.16 302.174C1489.81 313.818 1516.8 319.152 1529.85 340.63C1533.8 345.36 1542.18 348.258 1546.14 352.482C1548.42 355.559 1547.17 358.01 1550.74 361.437C1559.2 369.572 1568.75 377.439 1575 387.369C1575.08 388.777 1574 388.278 1572.05 387.473C1567.89 386.781 1561.34 378.668 1558.09 380.903C1558.53 384.434 1562.1 389.321 1558.47 392.234C1559.66 397.53 1569.64 402.894 1572.03 407.915C1544.18 390.312 1509.84 347.707 1469.55 339.445C1454.94 334.059 1439.53 331.4 1425.18 338.358C1422.92 339.475 1411.06 340.235 1416.78 342.701C1420.33 343.759 1427 342.872 1430.94 341.874C1433.64 341.352 1434.86 341.665 1434.1 343.319C1433.59 344.936 1431.01 347.699 1433.03 348.929C1445.53 350.128 1460.56 349.122 1472.49 351.886C1473.24 352.817 1472.17 353.98 1472.04 354.978C1471.94 358.315 1478.75 358.338 1480.42 360.573C1459.83 359.902 1413.93 359.165 1402.25 379.197C1407.51 376.53 1412.3 376.604 1418.29 375.129C1423.93 372.753 1431.62 367.657 1436.44 366.89C1437.56 366.584 1439.84 366.517 1438.76 368.127C1436.22 371.479 1429.5 373.863 1427.14 377.141C1424.73 381.394 1432.34 377.364 1434.54 377.394C1445.85 374.623 1458.02 376.455 1467.62 383.249C1471.57 385.335 1476.44 386.237 1480.46 387.898C1480.99 388.181 1481.29 388.516 1480.59 388.77C1472.36 390.349 1448.29 383.778 1443.39 392.323C1450.8 396.04 1462.19 392.263 1470.62 395.869C1473 396.599 1470.92 398.037 1470.83 399.698C1473 403.922 1476.06 407.915 1477.41 412.646C1478.14 415.588 1467.24 414.382 1470.4 418.36C1471.47 419.276 1474.43 419.917 1477.5 420.461C1484.26 421.518 1489.38 422.986 1481.81 425.452C1471.04 431.501 1460.25 440.865 1451.21 449.201C1446.52 454.275 1431.72 455.839 1431.71 463.535C1432.82 463.609 1436.73 462.067 1436.85 463.013C1436.92 463.795 1436.29 464.347 1435.54 465.516C1427.72 473.189 1393.55 522.357 1424.52 490.182C1433.74 486.316 1423.93 498.898 1425 502.943C1412.79 522.03 1403.24 536.251 1427.71 508.032C1433.35 504.605 1416.82 530.016 1416.88 532.906C1413.63 536.832 1409.67 541.242 1407.39 546.07C1405.48 549.415 1392.6 560.492 1405.81 554.89C1390.74 572.799 1366.2 584.19 1348.68 600.527C1329.22 617.892 1307.12 635.011 1293.57 657.621C1278.71 671.276 1260.37 680.35 1243.58 690.564C1242.29 691.689 1242.4 692.255 1244.01 691.875C1253.55 687.39 1262.41 683.233 1273.01 681.296C1278.42 679.352 1283.1 673.429 1288.71 672.528C1290.55 673.414 1285.01 677.527 1286.29 678.644C1287.27 678.756 1288.73 678.95 1287.94 680.186C1277.52 691.964 1259.64 695.19 1248.29 705.94C1247.77 708.249 1254.85 706.312 1251.98 709.464C1192.31 752.12 1103.45 733.958 1035.15 723.26C1033.72 723.022 1022.3 719.29 1027.69 723.26C1051.67 735.418 1080.86 731.455 1105.57 740.335C1111.82 742.101 1118.71 741.832 1125.2 741.639C1128.79 741.154 1145 740.521 1141.04 745.423C1135.92 746.988 1129.84 745.088 1124.48 745.781C1119.76 748.209 1116.92 749.878 1111.08 749.155C1083.71 749.141 1129.83 755.361 1133.34 757C1028.61 755.115 899.677 701.679 814.774 628.769C801.575 621.639 784.904 620.641 770.036 616.931C769.026 616.424 766.961 616.007 768.323 615.031C772.723 613.959 778.686 615.411 783.056 614.458C793.516 610.554 773.344 605.779 770.343 602.494M989.301 -89.9991C975.309 -77.424 966.517 -58.3157 950.677 -47.1263C945.26 -42.7011 938.66 -40.6599 946.637 -48.6683C985.553 -88.0846 969.465 -79.875 941.182 -48.847C929.105 -30.8337 931.836 -6.23489 924.092 13.5962C922.139 25.0985 901.69 57.8994 927.818 37.2266C938.346 29.1362 953.259 26.9535 959.888 14.4976C960.891 12.583 963.809 8.6719 960.711 7.93438C958.631 7.49485 959.237 6.36259 960.135 5.01419C962.851 1.52774 1001.06 -41.7476 992.145 -37.9259C973.222 -19.7859 954.658 -1.05731 932.592 13.2461C930.826 14.0059 930.003 13.4919 930.557 12.2925C958.152 -11.7104 988.359 -35.4599 1012.14 -63.4558C1016.7 -72.9095 1003.63 -56.7586 1000.47 -56.5798C997.165 -54.926 1007.97 -70.5107 1000.05 -65.7876C978.923 -43.3193 966.884 -35.8399 993.492 -67.3819C1000.58 -81.6778 963.33 -37.8216 958.751 -37.0617C956.102 -34.7299 934.006 -16.0982 944.467 -28.5913C951.036 -31.3328 1022.73 -106.038 989.286 -89.9916L989.301 -89.9991ZM891.147 -109.346C887.66 -107.61 885.019 -108.564 883.672 -104.891C879.953 -103.319 875.823 -101.136 881.308 -97.9256C882.325 -92.4501 878.075 -86.7511 876.541 -81.1266C876.115 -78.6831 875.105 -70.3692 871.356 -72.7382C871.304 -77.1782 875.366 -80.9552 875.501 -85.7826C875.741 -87.9877 874.558 -91.3176 872.246 -88.2186C869.029 -80.9477 866.896 -72.2167 862.646 -65.2438C861.936 -64.1561 860.102 -60.9678 862.482 -60.9752C864.128 -61.0199 865.931 -63.4112 867.63 -63.8507C869.74 -63.7837 872.306 -58.0176 872.448 -56.2595C869.216 -54.1885 863.32 -55.6635 859.691 -53.3839C852.418 -47.5881 856.705 -35.4004 850.899 -27.7272C850.241 -17.5659 844.651 -8.27612 843.978 1.90759C843.633 5.31955 830.3 31.468 839.945 24.8005C840.341 24.428 840.91 24.2716 841.097 24.8825C842.489 29.0469 836.757 31.2445 833.3 31.7958C827.24 35.61 837.902 51.9174 828.871 55.6497C827.023 56.2456 824.725 55.374 823.438 57.1247C820.438 63.8667 820.49 75.6297 825.092 81.947C827.075 82.9751 828.422 75.8681 829.342 73.6108C832.702 68.2619 830.562 64.1497 832.335 59.2776C843.102 52.3941 842.122 38.955 847.704 28.7191C852.83 -0.43894 868.109 -31.0721 876.511 -57.7792C877.043 -63.5527 880.133 -68.015 881.816 -73.4161C882.056 -77.6847 882.737 -81.6853 885.677 -85.0227C888.027 -87.6748 889.119 -91.705 889.568 -95.2287C890.054 -99.0132 892.92 -101.598 894.402 -105.048C895.666 -108.638 896.108 -114.933 891.132 -109.346L891.147 -109.346ZM929.973 -106.485C888.588 -74.1089 871.835 -20.5308 861.793 29.8812C861.913 35.8559 846.417 81.5 859.556 72.4934C868.572 67.7479 880.125 66.4219 884.592 56.2158C892.958 28.7786 918.42 -17.6328 915.974 -43.2523C912.075 -39.3263 906.546 -32.5248 901.6 -28.7627C895.023 -23.5926 899.078 -29.8057 896.931 -29.9248C895.861 -29.9621 893.526 -28.3158 892.823 -26.7439C891.633 -24.0247 892.224 -20.7319 889.897 -18.5044C888.019 -16.2844 883.911 -15.7034 884.592 -19.1675C894.574 -32.6887 900.837 -48.102 908.139 -63.3739C909.322 -72.537 946.337 -104.675 929.966 -106.485L929.973 -106.485ZM958.541 -111.722C951.366 -102.008 940.957 -90.245 936.902 -78.9811C932.203 -53.1828 931.732 -42.649 950.131 -70.9429C952.72 -74.0941 955.863 -81.7673 950.101 -76.3663C946.569 -73.5205 943.165 -64.9532 940.112 -63.2696C938.616 -75.1965 953.461 -83.652 959.267 -93.2844C964.969 -98.1938 969.922 -113.279 959.267 -99.7954C958.594 -99.0206 951.844 -90.9974 952.331 -93.3217C952.645 -95.9142 967.999 -121.668 958.541 -111.73L958.541 -111.722ZM1143.49 -25.6636C1140.4 -27.3622 1134.22 -25.1794 1130.89 -23.8385C1128.09 -21.7749 1127.18 -17.5658 1125.29 -14.9883C1124.85 -10.5035 1116.42 -7.94833 1116.88 -5.63893C1126.08 -4.62577 1129.3 -14.9137 1133.8 -20.6202C1138.3 -22.2368 1139.11 -11.2038 1143.48 -25.6562L1143.49 -25.6636ZM1056.39 49.6302C1047.34 55.2622 1037.5 63.3377 1028.25 69.5582C1026.83 70.5415 1017.88 79.8388 1024.42 75.4062C1030.96 69.1038 1056.27 58.771 1056.39 49.6302ZM1053.02 84.2489C1049.26 93.71 1079.54 67.5766 1082.94 66.325C1088.88 57.1917 1054.95 82.6025 1053.02 84.2489ZM1084.72 56.7373C1080.85 57.8845 1073.78 61.5349 1070.1 64.3136C1066.17 67.4276 1064.95 72.9404 1071.18 68.2247C1075.25 65.4833 1083.33 60.9538 1084.72 56.7373ZM1043.3 94.1198C1045.61 95.5799 1054.18 90.5812 1052.33 88.3463C1050.89 87.0351 1042.69 92.4659 1043.3 94.1198ZM1124.38 -21.7154C1120.01 -21.0672 1113.33 -16.7911 1109.17 -14.5189C1112.03 -14.0049 1124.31 -17.0891 1124.38 -21.7154ZM807.583 19.4666C816.831 8.98485 805.226 -13.61 804.044 2.13859C805.54 6.64565 806.513 15.4288 807.583 19.4666ZM224.837 127.867C221.29 131.964 216.891 136.538 211.945 138.654C208.885 142.029 205.615 147.154 201.776 149.523C197.549 153.62 204.941 151.862 206.745 150.03C217.325 142.26 243.798 122.645 247.09 111.098C241.815 108.55 236.861 118.555 234.033 121.646C230.92 124.001 226.842 123.725 224.837 127.859L224.837 127.867ZM187.275 158.582C168.539 179.553 188.592 168.229 197.781 156.496C201.529 151.058 196.299 152.049 194.077 155.766C192.094 158.709 190.029 159.26 187.275 158.589L187.275 158.582ZM193.995 144.316C195.341 146.484 216.457 120.633 207.223 127.591C204.186 129.662 199.808 134.467 195.955 136.941C192.73 138.259 189.991 142.17 194.002 144.316L193.995 144.316ZM166.527 169.131C170.604 168.445 172.797 161.331 175.116 158.023C180.152 149.724 185.674 142.803 192.715 136.568C195.805 135.793 213.569 111.954 205.847 116.081C192.999 132.024 172.034 149.724 166.519 169.131L166.527 169.131ZM892.262 102.009C899.437 100.437 905.895 96.0642 910.115 89.6649C911.769 86.0816 930.325 66.3772 920.717 68.1204C914.081 72.1432 903.635 70.8321 900.537 79.2129C898.577 85.8357 892.314 95.9152 892.262 102.009ZM1194.81 -12.3585C1186.93 -0.0739768 1224.92 -0.357091 1214.01 -4.67791C1211.7 -5.25153 1208.51 -5.4378 1208.69 -8.29848C1209.85 -12.9545 1204.62 -11.1889 1200.96 -12.4107C1198.98 -12.7683 1196.52 -13.7367 1194.81 -12.366L1194.81 -12.3585ZM1177.6 401.859C1177.4 401.814 1176.44 402.201 1176.39 402.388C1176.5 402.388 1177.47 401.978 1177.6 401.859ZM175.042 170.241C181.244 167.313 197.017 136.605 181.23 155.907C179.928 157.643 169.991 170.904 175.042 170.241ZM553.817 125.572C552.193 123.65 557.753 117.966 559.735 119.516C561.277 120.924 556.847 128.165 553.817 125.572ZM583.724 119.553C583.268 117.154 600.545 107.209 600.574 111.53C598.435 114.547 587.114 123.933 583.724 119.553ZM638.75 98.8355C633.782 104.385 620.844 103.208 617.53 111.619C613.586 123.621 590.989 121.006 606.68 109.615C616.355 105.123 627.429 95.0957 638.75 98.8429L638.75 98.8355ZM517.684 128.403C514.437 118.071 552.477 97.2263 545.429 106.971C540.655 110.546 533.906 113.675 531.489 119.061C533.382 124.336 520.946 132.851 517.684 128.403ZM269.507 161.189C270.001 159.968 271.505 158.872 272.291 157.77C274.715 154.589 269.432 153.918 273.151 150.797C276.563 147.668 281.681 144.487 284.659 141.202C285.318 140.263 285.138 139.675 284.577 138.989C281.501 134.706 290.016 134.4 292.508 133.365C296.586 130.906 300.514 124.045 304.66 120.76C309.74 116.417 306.373 124.038 305.243 126.139C301.233 136.337 291.199 141.314 285.033 149.851C281.988 152.846 273.031 168.088 269.5 161.197L269.507 161.189ZM234.751 178.018C235.118 176.781 244.658 172.602 244.351 175.508C244.074 178.07 233.749 183.821 234.751 178.018ZM191.802 170.911C202.083 166.941 206.977 155.87 217.003 151.237C235.38 142.625 248.212 123.762 264.404 111.045C268.766 106.903 266.948 110.435 265.474 112.796C260.506 121.14 251.609 126.973 244.516 133.797C241.433 139.786 240.071 143.504 233.644 146.871C230.127 148.629 213.464 166.881 212.648 160.422C211.705 155.863 205.555 165.533 204.013 166.635C202.143 169.548 180.002 179.843 191.795 170.919L191.802 170.911ZM225.525 164.072C241.156 154.611 203.759 195.503 194.683 193.662C190.081 193.446 142.478 214.678 149.646 206.111C184.716 184.946 197.152 201.529 225.533 164.072L225.525 164.072ZM170.956 183.628C171.053 188.202 160.773 200.553 154.727 197.313C153.155 193.707 167.956 182.995 170.956 183.628ZM90.5874 217.978C87.1904 213.523 108.822 200.434 112.653 199.25C115.766 197.402 160.369 186.682 145.187 196.225C127.73 205.038 105.941 206.007 90.5799 217.978L90.5874 217.978ZM559.316 567.525C557.438 567.853 551.19 562.317 554.041 560.47C559.264 557.944 561.419 563.591 559.316 567.525ZM579.115 561.952C576.376 563.182 571.109 554.465 571.543 553.363C572.126 550.353 580.978 560.641 579.115 561.952ZM527.883 532.422C530.427 536.407 525.264 540.795 521.351 539.179C518.47 535.089 523.797 530.664 527.883 532.422ZM980.382 703.392C987.887 706.811 996.881 707.199 1003.98 711.512C1007.07 713.36 1014.66 717.956 1009.44 716.66C998.228 713.531 986.96 710.499 976.581 704.904C967.356 698.959 974.524 699.786 980.382 703.392ZM1247.81 692.583C1249.32 690.221 1257.94 684.276 1260.57 686.31C1261.96 688.56 1247.31 697.209 1247.81 692.583ZM800.497 614.525C800.071 617.862 790.321 618.361 788.608 616.29C789.147 615.642 792.91 615.352 794.175 614.339C795.963 611.791 799.966 610.308 800.497 614.532L800.497 614.525ZM776.464 583.102C773.516 590.991 763.377 576.837 767.694 573.626C770.934 574.982 775.775 579.772 776.464 583.102ZM761.656 578.506C758.244 579.809 750.642 571.898 751.211 569.268C754.48 569.648 763.317 574.825 761.656 578.506ZM209.535 290.195C206.318 300.096 188.128 285.562 203.52 288.102C205.368 288.355 209.453 288.206 209.535 290.195ZM205.166 286.232C204.073 287.275 192.341 276.726 197.055 277.218C199.329 277.933 205.293 282.709 205.166 286.232ZM181.626 283.074C183.205 281.368 185.023 279.058 187.35 277.702C196.8 271.236 190.388 286.322 188.42 290.456C186.594 294.248 183.534 291.067 181.716 289.004C179.92 287.007 179.875 284.981 181.626 283.074ZM134.075 287.528C134.547 284.66 137.899 280.936 138.946 285.457C139.261 287.268 138.415 289.108 139.934 290.032C143.017 291.618 145.299 291.685 146.399 295.537C148.524 302.785 154.001 290.978 162.606 302.726C165.082 306.019 159.987 309.162 157.016 308.708C154.188 308.06 152.43 302.979 148.928 302.86C143.533 302.666 142.852 311.591 138.101 311.628C133.754 310.824 128.231 304.812 127.551 299.962C126.525 293.89 132.317 292.311 134.075 287.528ZM263.461 298.457C264.135 300.208 278.621 318.266 271.445 314.228C266.843 313.208 247.703 292.848 263.461 298.457ZM117.674 314.429C111.478 315.77 115.264 305.989 117.756 304.29C122.036 303.925 119.604 312.887 117.674 314.429ZM73.2955 293.674C74.4553 295.313 65.7607 305.11 64.3915 301.586C63.8078 299.299 71.8664 292.579 73.2955 293.674ZM-72.6192 294.069C-71.1601 296.192 -72.3049 300.372 -69.1698 301.415C-68.2121 310.168 -80.5206 299.545 -72.6192 294.069ZM-92.5299 333.076C-88.8037 329.791 -85.0026 321.693 -81.0594 320.24C-79.6826 320.612 -79.0466 322.877 -77.5726 323.212C-74.4075 323.384 -71.8485 318.921 -68.5787 317.67C-59.3155 315.636 -68.6535 326.736 -70.8683 330.394C-74.8639 336.242 -79.0541 335.281 -77.4154 343.438C-91.4225 343.841 -83.5735 347.044 -90.1505 352.728C-96.8174 353.54 -96.78 356.684 -99.4961 361.273C-100.334 362.614 -100.559 361.504 -100.439 360.148C-98.9648 350.955 -98.0595 340.712 -92.5299 333.061L-92.5299 333.076ZM-106.717 359.492C-105.564 361.295 -107.068 370.429 -110.473 367.881C-111.939 365.579 -109.523 359.425 -106.717 359.492ZM-81.1417 371.375C-83.8054 372.768 -85.6835 366.488 -83.6408 364.566C-79.6527 360.915 -80.4084 369.549 -81.1417 371.375ZM-69.7834 370.779C-73.3001 371.539 -74.834 378.266 -77.1461 376.388C-78.5603 373.475 -74.2878 369.691 -72.8437 366.89C-69.8582 363.858 -66.0421 368.432 -69.7759 370.779L-69.7834 370.779ZM-117.738 362.144C-111.827 363.769 -118.232 370.63 -120.903 371.121C-121.382 369.438 -119.085 363.426 -117.738 362.144ZM-101.21 366.659C-102.302 370.808 -104.891 371.36 -101.733 376.098C-100.446 379.145 -106.14 381.074 -108.34 379.13C-112.284 374.883 -105.946 366.659 -101.21 366.659ZM-143.829 385.373C-143.41 382.154 -139.467 375.651 -135.921 375.316C-133.436 376.269 -137.11 381.864 -137.679 383.778C-139.093 386.579 -138.218 392.122 -139.445 394.26C-142.707 395.243 -144.159 387.92 -143.822 385.373L-143.829 385.373ZM-126.014 391.928C-125.55 395.325 -130.226 399.609 -133.691 399.199C-141.585 395.012 -131.02 381.082 -126.014 391.928ZM-237.681 503.301C-231.329 504.106 -231.127 509.566 -234.636 514.066C-235.796 513.708 -238.557 505.134 -237.681 503.301ZM-219.507 536.512C-220.704 533.964 -220.719 526.306 -216.723 531.148C-211.358 535.372 -215.429 538.575 -219.507 536.512ZM-153.976 563.219C-164.556 562.005 -176.109 550.562 -156.782 558.28C-155.352 559.054 -151.132 563.301 -153.976 563.219ZM-122.983 564.076C-121.105 565.141 -120.275 573.179 -121.966 574.684C-126.597 577.113 -130.63 573.835 -134.372 579.444C-139.168 580.539 -145.371 570.721 -141.862 566.802C-137.23 562.325 -128.543 564.605 -122.983 564.076ZM-146.92 513.984C-139.295 516.129 -142.094 526.187 -135.082 518.871C-133.81 518.729 -132.613 521.694 -131.229 523.996C-127.772 529.896 -119.28 531.357 -116.242 537.547C-115.366 540.542 -112.037 544.394 -111.079 539.209C-110.585 535.379 -115.927 530.373 -114.872 526.112C-102.07 527.654 -113.75 534.709 -101.89 535.342C-91.0783 537.339 -104.195 538.195 -105.879 541.928C-108.67 546.271 -101.808 550.16 -106.844 550.301C-121.12 547.969 -125.812 537.577 -133.571 556.03C-139.078 562.988 -154.896 559.278 -155.644 550.115C-151.678 540.84 -144.518 532.392 -151.671 521.895C-156.31 511.928 -158.682 518.394 -164.301 514.215C-178.151 521.039 -161.473 502.869 -175.024 498.012C-179.019 495.844 -183.868 495.814 -186.18 499.904C-186.569 500.433 -186.487 500.835 -185.836 501.23C-183.03 503.651 -176.685 502.802 -174.201 505.312C-171.896 510.199 -178.121 511.049 -180.673 513.574C-182.798 517.493 -189.712 529.688 -180.029 524.22C-176.55 521.359 -175.293 523.169 -172.988 526.134C-170.774 530.068 -161.929 536.951 -169.636 538.143C-174.32 539.924 -159.056 552.111 -169.068 547.597C-171.477 545.98 -176.602 539.149 -179.476 543.075C-180.643 548.632 -168.694 553.683 -173.542 559.196C-182.409 561.394 -191.156 554.041 -196.266 547.098C-200.142 542.382 -209.473 543.894 -209.802 536.534C-194.755 536.713 -217.965 523.601 -218.803 518.193C-220.232 515.057 -217.733 506.318 -223.674 508.747C-231.987 499.234 -221.347 479.686 -219.424 468.161C-214.681 458.804 -212.705 468.973 -210.049 468.221C-206.33 465.822 -209.772 459.579 -210.214 455.653C-211.463 449.283 -203.457 446.825 -203.472 441.677C-207.423 434.757 -201.773 433.758 -197.838 428.305C-196.162 425.251 -194.957 421.63 -191.762 419.805C-189.061 418.069 -185.207 417.607 -182.304 415.954C-180.478 415.268 -175.697 409.815 -174.388 410.925C-171.484 417.086 -164.391 408.653 -162.73 405.025C-161.054 401.546 -161.6 398.871 -160.897 396.055C-160.538 393.85 -157.567 390.565 -155.921 390.923C-155.143 392.278 -155.667 394.543 -154.859 395.936C-153.729 397.627 -150.788 392.077 -149.509 391.362C-146.516 390.14 -147.795 395.817 -148.528 397.329C-148.932 402.432 -159.969 402.969 -155.173 407.297C-154.477 408.243 -153.399 409.294 -154.245 410.389C-166.494 417.272 -160.672 433.207 -165.199 444.3C-166.127 446.706 -169.18 445.797 -170.654 447.384C-172.285 451.377 -165.094 452.301 -168.117 457.806C-174.35 464.846 -144.899 498.407 -158.188 494.391C-160.231 491.873 -162.109 488.871 -165.304 488.037C-166.082 484.938 -168.551 478.114 -171.657 483.969C-172.023 490.16 -166.696 499.174 -162.513 503.011C-149.464 502.631 -157.253 512.434 -146.935 514.006L-146.92 513.984ZM-155.734 444.233C-152.023 447.749 -157.792 454.372 -160.351 457.404C-167.234 456.875 -160.77 443.942 -155.734 444.233ZM-85.5862 498.407C-84.9428 499.83 -90.8763 499.621 -91.8715 500.82C-94.5352 503.174 -90.4423 509.209 -94.6774 511.54C-106.021 516.07 -101.741 489.981 -85.5862 498.407ZM-136.04 494.168C-146.748 486.867 -145.318 501.424 -149.643 486.062C-153.257 478.225 -159.438 468.355 -152.03 460.748C-149.651 457.5 -148.461 460.264 -147.009 462.507C-143.702 467.066 -142.393 474.553 -136.811 476.721C-132.202 477.458 -126.148 473.055 -122.183 476.4C-121.696 478.732 -116.287 496.03 -122.856 490.473C-124.876 487.687 -124.398 481.995 -128.094 480.423C-133.391 481.108 -136.519 489.594 -136.04 494.175L-136.04 494.168ZM-70.7112 473.8C-71.6091 475.536 -74.3402 476.482 -76.2033 476.989C-80.4309 476.423 -76.772 472.303 -74.4 471.476C-72.3199 465.643 -69.9629 469.219 -70.7187 473.8L-70.7112 473.8ZM-107.345 476.035C-93.585 475.789 -97.4234 501.878 -106.574 484.863C-107.48 482.703 -121.487 461.121 -122.632 463.974C-123.245 465.256 -123.35 467.803 -124.562 468.712C-126.68 467.446 -126.395 463.304 -128.431 461.739C-131.685 458.774 -134.783 462.276 -135.928 465.367C-138.113 471.707 -151.768 449.887 -141.345 455.467C-134.91 459.02 -127.989 455.079 -134.147 448.233C-151.185 437.267 -148.281 437.036 -146.411 419.284C-152.659 406.396 -148.02 413.95 -141.465 408.325C-140.582 406.321 -142.498 403.475 -142.542 401.546C-142.453 397.024 -134.147 400.265 -134.417 403.438C-137.118 409.502 -143.927 417.466 -139.781 424.729C-132.09 425.564 -134.731 431.799 -128.012 425.884C-123.432 432.678 -116.317 440.739 -114.004 449.269C-114.446 452.636 -120.252 442.877 -121.539 446.482C-122.235 447.652 -122.011 451.421 -124.053 450.52C-132.987 446.326 -124.54 463.401 -113.773 458.573C-110.376 456.554 -106.342 454.93 -103.656 459.02C-102.893 460.048 -100.783 462.834 -102.863 463.319C-105.34 463.855 -113.331 459.221 -114.199 464.488C-113.997 468.802 -111.229 474.486 -107.345 476.058L-107.345 476.035ZM-129.568 412.892C-132.726 411.081 -130.324 404.407 -130.099 401.263C-129.546 400.019 -126.35 405.591 -125.542 406.5C-122.542 409.383 -126.41 412.996 -129.568 412.892ZM-110.6 422.293C-113.615 422.695 -115.995 415.991 -117.955 413.756C-127.637 402.455 -107.577 416.333 -110.6 422.293ZM-108.916 435.472C-106.507 435.472 -104.3 439.39 -104.629 441.685C-105.901 446.088 -111.535 437.818 -108.916 435.472ZM-93.8618 439.882C-92.0137 440.038 -88.901 446.922 -88.2949 448.844C-89.5893 454.945 -99.9899 441.662 -93.8618 439.882ZM-97.4234 464.771C-98.2091 462.596 -93.57 457.813 -91.2804 459.229C-85.272 465.039 -92.919 468.861 -97.4234 464.771ZM244.778 463.006C245.331 469.904 209.932 459.08 219.697 458.789C227.202 459.78 239.121 458.298 244.778 463.006ZM223.55 452.047C226.147 454.863 213.636 455.422 212.701 454.349C213.763 451.451 221.051 450.937 223.55 452.047ZM138.55 325.343C134.247 331.802 126.294 330.319 121.108 334.365C116.709 341.635 116.215 339.788 109.391 342.88C105.919 345.129 105.507 348.966 101.018 347.871C100.27 347.781 99.2521 347.752 99.0875 348.594C102.29 366.659 86.1803 356.632 96.7081 366.711C97.9127 367.963 96.6781 367.993 95.7054 367.762C77.7551 358.449 81.9677 384.501 66.2995 378.966C47.2417 374.057 59.8272 393.098 48.409 390.148C22.6769 380.024 39.5498 413.607 19.3099 401.144C11.4458 398.037 9.03651 414.665 -5.21003 409.346C-10.2307 407.953 -8.39758 422.725 -8.24045 425.765C-5.03049 438.325 -20.8184 418.866 -25.5398 423.217C-30.8673 427.799 -27.2159 436.366 -26.2057 442.162C-25.7717 445.864 -30.5081 442.184 -29.9619 445.648C-29.715 448.851 -26.4003 455.653 -27.4852 459.847C-36.1424 464.593 -47.8599 448.278 -56.2028 445.998C-65.3388 440.269 -64.0518 449.581 -58.2455 454.141C-50.561 462.335 -57.6469 467.535 -63.7301 458.372C-64.4783 455.012 -68.0699 453.515 -70.0527 451.28C-70.1425 449.969 -67.9726 447.95 -69.5215 446.981C-91.5123 438.131 -63.1839 469.956 -77.4828 462.7C-88.8486 460.063 -78.448 450.475 -82.5858 442.862C-86.3195 437.081 -91.5423 430.339 -97.1541 425.891C-101.097 423.835 -110.81 418.755 -104.981 414.665C-100.439 415.648 -96.2188 422.398 -92.5225 425.616C-88.6466 430.264 -85.2271 440.873 -78.9194 433.028C-75.7992 432.753 -71.6091 447.086 -69.3344 438.638C-67.0224 432.954 -74.9911 420.356 -80.1166 423.798C-79.967 430.562 -86.8957 424.759 -88.7289 421.883C-93.2782 413.741 -77.8943 425.936 -84.5013 410.411C-86.978 404.191 -93.6074 408.586 -93.2857 406.068C-92.4626 403.118 -95.2984 393.15 -90.4648 394.297C-89.537 401.24 -82.6307 402.611 -78.2086 406.552C-78.4555 417.473 -79.2037 419.634 -68.6311 425.176C-65.451 429.579 -62.8546 434.049 -57.5945 436.515C-49.7529 443.07 -48.4809 441.275 -49.4761 431.613C-49.8427 416.319 -56.0082 421.258 -63.3634 411.841C-70.1126 408.303 -70.599 406.031 -72.2152 398.529C-77.9467 386.781 -70.0003 394.61 -64.8225 394.722C-67.9576 383.086 -62.0017 371.129 -70.5167 361.847C-71.2275 354.315 -64.3736 359.604 -61.0289 357.712C-57.7815 353.309 -52.9105 344.906 -55.4396 356.773C-71.1227 383.398 -50.9052 373.96 -47.6728 397.091C-46.6028 402.164 -38.245 397.642 -38.8735 393.806C-33.2317 390.349 -32.3338 384.993 -35.237 378.497C-38.1178 373.587 -35.873 372.395 -31.1591 373.96C-27.2608 375.256 -25.6445 380.128 -21.634 381.171C-18.0125 381.767 -16.5384 376.746 -15.4909 373.915C-14.825 370.257 -7.36499 363.456 -9.52741 371.017C-10.8518 375.077 -7.37997 377.215 -4.42441 379.16C2.03292 384.993 10.4282 389.731 12.2839 377.662C17.1848 367.24 6.50744 363.776 10.0541 356.699C10.4282 355.902 11.6179 354.658 10.3384 354.27C1.16498 350.881 1.55405 363.575 -3.60883 358.747C-5.01552 355.432 -1.08723 351.037 -0.256679 347.677C1.20988 340.406 3.2825 339.334 7.86175 334.082C9.02152 326.505 6.11086 328.487 13.1593 323.108C15.3517 319.056 16.3393 314.243 20.4996 311.516C23.2007 308.872 31.0647 305.713 30.9001 311.941C30.324 315.36 25.5577 319.748 25.9543 323.957C26.8746 327.667 30.6233 321.574 32.883 319.592C38.5696 313.871 39.3029 316.262 42.7747 321.03C46.1792 319.972 45.7527 311.077 50.3844 312.366C61.2937 318.378 51.8584 301.385 58.1362 304.64C65.3492 311.859 67.3844 323.645 70.6617 332.845C77.9795 336.13 76.9245 326.036 80.127 324.114C87.4224 325.321 93.2287 329.068 100.434 330.245C107.745 332.51 103.367 327.556 115.212 330.446C115.766 328.569 112.907 325.373 113.065 324.01C114.748 322.073 119.642 328.397 121.235 323.727C123.6 320.136 122.612 309.55 128.374 310.749C132.033 311.628 141.438 320.508 138.542 325.336L138.55 325.343ZM-17.1745 374.243C-23.8787 379.964 -32.8427 362.807 -23.7964 360.655C-16.4187 361.169 -19.8906 366.182 -22.8387 369.415C-23.325 372.179 -15.6181 370.436 -17.1745 374.243ZM-51.1596 377.185C-54.0254 375.628 -57.8713 364.424 -52.4241 365.758C-51.6684 368.849 -50.4862 374.474 -51.1596 377.185ZM849.709 349.942C846.814 348.377 840.903 348.296 838.426 347.044C842.062 342.47 851.161 342.567 856.488 343.639C870.062 346.88 855.433 351.953 849.709 349.942ZM983.143 375.345C957.232 383.577 976.94 368.089 986.51 366.488C991.067 370.704 990.379 375.293 983.143 375.345ZM885.775 402.849C897.844 406.023 892.875 409.599 883.485 407.461C881.487 407.707 882.991 409.152 884.121 409.688C888.558 412.288 893.519 410.813 898.068 409.711C915.472 410.731 932.323 417.049 949.921 419.187C967.296 421.042 948.088 423.776 942.94 422.114C938.862 420.431 934.605 421.548 930.714 422.755C912.554 420.192 892.09 419.395 875.426 410.173C866.65 398.372 849.784 398.916 837.259 391.668C833.689 386.877 848.52 393.955 850.824 393.902C862.811 395.884 874.588 398.454 885.782 402.849L885.775 402.849ZM1151.36 426.592C1149.12 413.987 1168.18 412.735 1159.25 428.968C1157.57 429.601 1156.73 426.338 1154.81 426.577C1153.59 426.45 1152.08 427.21 1151.36 426.592ZM1237 425.124C1249.18 412.638 1247.12 415.79 1242.81 429.11C1242.57 432.767 1246.11 437.781 1246.8 439.949C1247.26 441.431 1245.96 442.117 1244.66 442.556C1241.95 443.152 1234.58 447.056 1238.17 450.058C1242.04 449.946 1246.55 450.96 1245.61 455.936C1241.33 471.938 1243.08 447.443 1233.08 465.218C1228.91 469.502 1225.69 461.56 1226.29 458.022C1226.31 454.342 1229.83 450.244 1226.46 449.246C1219.16 447.764 1215.32 457.389 1207.61 455.079C1198.51 456.294 1194.54 447.726 1195.15 455.191C1195.67 458.409 1197.95 461.106 1197.78 464.808C1198.04 465.613 1196.37 472.683 1195.79 469.792C1196.06 459.028 1189.31 455.325 1180.04 460.89C1173.41 462.581 1173.46 459.951 1172.66 467.371C1172.36 468.556 1171.95 470.925 1170.91 470.999C1169.61 469.509 1170.5 465.755 1168.7 464.324C1165.24 462.022 1148.79 463.326 1153.68 456.413C1159.22 457.031 1166.74 455.802 1170.43 450.96C1170.53 440.016 1172.88 444.53 1179.3 447.704C1181.97 446.639 1179.35 440.634 1181.05 439.532C1184.87 438.653 1189.35 440.366 1192.43 436.746C1198.2 435.107 1197.08 443.711 1202.77 431.233C1206.3 423.135 1212.54 431.404 1220.27 424.506C1230.65 415.313 1227.94 423.463 1224.6 430.093C1225.84 433.825 1235.43 426.837 1237 425.139L1237 425.124ZM1262.36 445.38C1276.61 427.433 1261.13 462.566 1254.63 459.534C1251.87 457.634 1253.54 452.278 1253.66 449.328C1254.35 440.768 1257.35 446.654 1262.35 445.38L1262.36 445.38ZM1274.33 437.237C1282.78 431.449 1274.95 447.689 1273.13 450.058C1266.05 460.465 1269.08 438.422 1274.33 437.237ZM1253.63 475.953C1253.1 480.974 1246.76 484.245 1243.14 487.091C1234.39 495.218 1226.29 507.562 1212.47 504.508C1201.35 502.355 1203 513.865 1198.17 512.278C1192.84 507.778 1191.89 524.205 1186.37 524.16C1183.79 522.603 1194.2 508.642 1190.23 508.054C1185.66 512.248 1184.62 524.629 1177.03 517.977C1175.08 517.56 1169.78 526.037 1169.47 520.875C1169.29 519.69 1169.91 516.398 1168.06 516.636C1165.33 517.269 1163.51 521.933 1160.45 521.441C1158.55 521.016 1156.52 518.118 1154.1 518.938C1140.3 531.394 1146.63 524.518 1128.84 529.554C1070.53 524.287 1019.58 503.89 964.235 488.737C958.384 488.506 957.479 490.428 955.765 483.5C945.462 476.788 931.432 476.713 923.06 466.909C897.829 443.704 937.366 462.633 947.998 464.123C961.893 466.932 978.093 467.125 992.526 470.105C1017.57 476.892 1042.52 482.941 1067.98 486.04C1074.75 491.992 1083.5 485.928 1091.17 490.137C1098.84 497.051 1104.81 494.801 1113.89 492.372C1119.2 492.693 1123.09 493.363 1128.14 492.216C1136.21 491.925 1145.49 494.041 1152.53 497.11C1159.55 494.712 1161.47 497.475 1168.32 499.211C1178.16 503.301 1180.07 491.627 1190.2 492.559C1195.26 492.752 1201.3 496.425 1204.44 491.069C1209.67 482.911 1217.81 483.463 1225.72 480.363C1228.86 479.581 1240.5 469.263 1238.69 477.22C1236.58 489.102 1245.84 464.503 1253.64 475.946L1253.63 475.953ZM1139.29 443.316C1143.57 442.147 1151.45 452.047 1152.28 455.519C1151.74 461.687 1144.61 469.204 1138.79 463.818C1118.64 455.742 1125.63 468.124 1106.36 463.065C1102.42 462.633 1098.15 463.237 1094.44 461.411C1086.66 457.694 1081.12 464.846 1072.73 462.231C1058.13 462.656 1077.8 450.438 1054.27 458.528C1049.03 459.646 1041.82 459.661 1039.39 454.386C1039.03 450.021 1046.92 452.919 1049.5 452.487C1061.33 449.864 1067.07 449.931 1076.52 457.456C1080.83 458.178 1086 452.762 1089.75 450.647C1096.79 446.117 1094.59 452.062 1097.77 452.122C1100.57 451.198 1103.42 447.294 1105.92 450.803C1111.19 451.861 1111.24 447.771 1119.39 450.706C1125.3 450.55 1127.93 441.551 1134.21 444.106C1135.94 444.329 1137.64 443.756 1139.29 443.324L1139.29 443.316ZM946.075 536.996C944.392 536.892 938.384 532.809 942.065 532.377C944.616 533.256 947.108 534.85 949.675 536.057C957.711 539.872 948.799 538.076 946.083 536.996L946.075 536.996ZM975.93 536.921C978.998 537.786 994.741 542.188 986.234 544.677C971.8 543.932 959.342 535.104 946.584 528.868C941.855 526.715 941.616 531.565 937.231 530.567C898.023 509.872 861.569 488.469 827.202 459.296C824.995 457.575 814.467 448.293 822.832 451.57C875.98 476.356 922.895 512.33 975.938 536.921L975.93 536.921ZM1311.7 464.704C1309.94 468.63 1308.31 467.394 1307.24 464.585C1305.18 463.14 1304.68 469.219 1305.01 471.662C1305.63 475.387 1306.82 479.209 1304.45 482.576C1299.17 491.799 1306.02 486.07 1307 489.072C1309.29 497.632 1302.48 505.506 1295.34 509.849C1286.83 517.031 1278.2 525.643 1267.11 528.19C1260.85 528.287 1253.99 535.387 1248.16 532.332C1246.18 522.938 1244.55 513.924 1251.31 505.953C1256.36 499.263 1256 503.748 1257.46 508.903C1259.18 511.928 1271.02 514.081 1269.91 508.68C1268.99 503.778 1278.57 495.36 1272.38 492.074C1269.6 492.246 1267.77 495.866 1265.09 496.015C1261.82 495.695 1261.41 492.581 1264.18 490.614C1276.33 470.359 1255.89 488.662 1251.19 494.816C1248.83 497.356 1247.4 501.558 1245.31 503.934C1240.97 505.961 1244.42 496.447 1246.41 494.987C1255.23 486.934 1256.94 472.623 1269.27 469.286C1272.5 465.561 1271.38 459.154 1277.69 458.61C1286.8 454.602 1298.75 456.495 1287.94 467.185C1282.4 472.348 1285.76 482.74 1282.64 487.932C1281.14 486.979 1281.84 483.381 1279.97 482.583C1274.64 483.053 1276.83 490.704 1277.23 494.384C1277.31 516.964 1289.74 485.556 1292.68 479.641C1298.64 473.748 1302.78 467.319 1302.94 458.752C1302.75 455.958 1298.48 459.05 1297.08 456.621C1293.5 452.248 1294.7 451.764 1299.34 450.93C1302.85 448.628 1306.14 449.306 1309.73 448.27C1314.02 444.687 1317.36 439.748 1314.87 449.589C1313.22 454.491 1313.91 460.063 1311.7 464.697L1311.7 464.704ZM1425.1 458.983C1424.95 452.479 1436.46 445.879 1440.96 441.662C1457.92 429.035 1428.69 460.413 1425.1 458.983ZM1442.84 426.666C1450.14 433.252 1413.15 464.794 1424.02 444.113C1426.29 440.15 1438.67 422.695 1442.84 426.666ZM1281.64 407.245C1287.37 411.104 1276.87 422.368 1288.37 421.697C1286.23 424.908 1279.92 427.635 1276.18 427.731C1274.61 427.009 1273.55 428.35 1272.53 429.616C1267.9 436.299 1259.69 440.299 1251.99 442.854C1245.34 443.13 1248.3 435.211 1251.54 432.551C1259.42 422.345 1267.1 407.602 1281.64 407.237L1281.64 407.245ZM1246.9 363.009C1244.32 370.913 1242.27 368.648 1236.41 366.055C1232.29 376.664 1221.59 382.78 1210.37 384.449C1201.86 387.563 1196.91 394.893 1187.62 398C1171.83 402.745 1194.47 416.162 1173.08 421.265C1168.89 422.152 1164.19 418.36 1170.06 416.095C1173.01 415.559 1177.93 416.378 1178.55 412.37C1178.8 394.186 1145.6 420.103 1135.05 417.704C1127.87 417.555 1120.82 426.532 1117.22 423.075C1109.86 417.846 1100.14 424.252 1092.25 421.787C1080.87 423.582 1069.36 430.533 1057.17 426.249C1052.95 424.908 1049.89 422.442 1046.64 426.897C1043.77 428.931 1041.51 421.347 1037.47 421.34C1032.61 418.561 1016.16 423.642 1018.89 415.343C1022.75 416.84 1026.86 415.365 1030.8 414.307C1037.24 413.1 1040.29 415.737 1044.96 418.241C1057.2 421.399 1053.13 414.106 1062.11 412.936C1068.92 412.452 1072.07 418.479 1076.88 411.29C1079.74 415.298 1081.36 418.226 1086.6 413.517C1090.31 410.135 1083.89 408.996 1081.9 406.939C1079.73 399.959 1091.41 404.95 1094.38 404.503C1096.14 402.969 1093.8 399.43 1095.33 397.769C1100.55 394.007 1108.81 397.128 1114.36 394.536C1117.21 396.681 1109.83 405.703 1119.11 398.223C1129.27 380.337 1126.83 397.136 1137.33 386.214C1141.89 376.835 1151.13 383.629 1158.39 380.292C1160.44 379.078 1162.47 377.506 1164.92 378.675C1171.89 380.478 1176.11 362.703 1181.58 362.956C1185.28 375.405 1188.84 349.54 1196 350.337C1205.78 351.909 1204.6 349.696 1213.56 346.739C1215.82 344.057 1217.87 343.319 1221.15 344.451C1226.86 344.965 1232.79 341.583 1237.51 339.147C1239.06 347.983 1254.85 331.564 1257.31 328.703C1260.82 332.115 1252.19 340.563 1248.31 342.261C1242.06 345.733 1249.82 345.889 1252.73 346.478C1256.54 349.957 1247.53 358.263 1246.9 363.016L1246.9 363.009ZM1298.71 334.037C1293.9 335.78 1278.26 355.432 1276.27 345.748C1273.09 341.367 1264.86 350.203 1261.76 349.771C1259.33 344.623 1269 340.295 1273.18 339.684C1277.58 338.678 1285.14 342.038 1288.65 337.851C1289.01 336.331 1284.42 336.592 1282.97 336.026C1278.94 335.244 1275.72 329.694 1271.63 333.083C1266.76 333.329 1261.92 339.736 1257.22 341.077C1253.95 341.688 1254.55 339.386 1256.47 337.948C1266.89 331.549 1277.53 324.576 1289.02 320.061C1303.12 325.894 1294.81 322.05 1307.88 320.799C1313.01 323.942 1302.71 332.532 1298.71 334.037L1298.71 334.037ZM1388.94 325.872C1381.6 324.106 1387.01 321.611 1392.46 322.147C1395.57 322.065 1402.26 319.711 1403.21 323.451C1400.77 328.092 1393.28 324.471 1388.94 325.872ZM1478.25 338.194C1474.18 340.563 1461.64 330.893 1468.09 329.194C1471.63 330.416 1477.79 334.655 1478.25 338.194ZM1425 317.759C1437.25 309.602 1473.09 330.915 1460.92 327.809C1449.04 321.722 1434.52 323.019 1421.58 323.458C1416.23 324.002 1410.34 328.032 1408.82 320.456C1407.39 316.143 1411.74 318.459 1414.33 319.488C1418.1 320.486 1420.98 316.105 1425 317.759ZM1057.37 273.858C1038.11 285.666 1051.26 268.644 1029.09 290.24C1020.74 297.019 1007.72 290.866 1002.75 302.42C1001.65 304.402 1002.16 305.318 1004.16 303.962C1007.29 299.426 1021.86 294.002 1014.85 304.141C1007.9 312.254 994 312.083 988.418 321.186C954.755 339.408 911.791 361.526 871.184 354.143C864.854 350.791 857.813 342.85 871.034 345.107C890.601 344.414 910.699 339.371 930.28 335.802C940.022 335.191 945.365 326.297 954.635 323.57C964.879 318.34 972.997 309.155 982.56 302.867C989.743 300.513 994.644 296.245 999.485 290.516C1015.03 276.443 1030.23 262.639 1046.72 250.183C1048.01 249.088 1053.2 245.184 1051.53 248.954C1051.2 250.965 1045.32 254.854 1046.91 256.284C1048.5 255.942 1050.19 254.929 1051.7 254.094C1062.17 247.39 1047.22 270.752 1041.48 267.966C1038.83 267.742 1037.45 266.237 1035.8 267.668C1024.41 284.251 1054.6 266.371 1060.54 266.714C1072.87 260.389 1062.41 271.132 1057.36 273.836L1057.37 273.858ZM1161.08 271.743C1156.23 270.044 1164.83 266.178 1166.39 264.531C1169.13 263.503 1174.45 252.604 1176.43 256.411C1176.03 262.259 1166.9 271.765 1161.08 271.743ZM1203.07 250.347C1195.23 257.38 1194.51 256.657 1184.78 259.413C1179.16 262.572 1182.29 258.631 1180.44 255.77C1179.38 253.945 1175.55 253.625 1176.3 252.016C1192.61 249.207 1190.53 242.734 1203.07 241.333C1216.51 235.91 1212.79 248.351 1203.07 250.332L1203.07 250.347ZM1216.03 246.257C1211.54 243.017 1214.82 231.924 1206.48 236.118C1202.83 236.818 1197.86 241.333 1195.58 238.204C1195.1 235.366 1196.67 230.583 1200.34 232.274C1207.98 233.623 1230.27 224.132 1222.15 240.581C1220.9 242.719 1218.46 247.233 1216.03 246.257ZM1162.4 229.443C1164.64 226.322 1172.24 222.478 1175.93 222.314C1176.14 224.526 1162.62 234.636 1162.4 229.443ZM1153.64 229.659C1144.59 227.179 1148.57 225.815 1154.22 222.59C1156.83 220.66 1154.44 229.294 1153.64 229.659ZM1176.65 230.106C1178.83 228.318 1185.98 226.128 1187.13 229.592C1186.58 230.956 1181.85 232.282 1179.91 233.6C1177.84 234.792 1174.06 238.264 1172.7 238.219C1170.46 237.69 1175.52 230.754 1176.65 230.106ZM1235.93 238.42C1234.15 236.424 1233.97 231.745 1232.08 229.942C1229.46 228.467 1221.24 231.075 1222.48 225.502C1223.88 223.633 1227.98 225.115 1230.19 224.743C1245.96 219.766 1233.13 240.759 1243.62 236.275C1247.97 233.704 1251.37 228.996 1256.88 231.09C1258.65 231.343 1264.09 225.093 1264.57 226.955C1262.55 234.33 1253.71 236.297 1247.31 237.601C1243.73 238.435 1238.95 242.1 1235.93 238.428L1235.93 238.42ZM1389.3 230.985C1398.86 243.069 1376.64 226.597 1375.54 222.746C1378.16 221.599 1386.57 228.884 1389.3 230.985ZM1364.81 185.952C1362.42 185.952 1358.09 184.09 1356.03 182.629C1356.55 177.467 1367.64 180.804 1364.81 185.952ZM1169.57 160.042C1164.56 161.919 1159.58 166.821 1168.81 166.173C1170.71 165.771 1172.03 164.907 1173.85 165.518C1179.32 168.475 1178.97 177.988 1187.05 176.938C1202.27 170.971 1214.13 169.794 1191.82 181.408C1184.87 182.898 1180.43 192.254 1179.03 190.563C1176.49 186.22 1172.87 189.461 1168.7 191.413C1164.28 193.208 1161 196.68 1158.67 200.65C1156.29 203.451 1155.21 199.592 1152.84 201.574C1154.74 199.093 1066.03 265.835 1099.47 232.833C1108.18 223.223 1103.78 225.175 1096.74 229.957C1090.57 233.123 1098.59 224.452 1098.99 222.768C1101.75 219.639 1098.28 211.951 1095.68 217.822C1095.2 218.865 1095.02 220.235 1093.91 220.63C1091.32 221.018 1088.29 219.297 1085.6 220.027C1079.13 222.835 1078.96 219.692 1083.28 216.399C1108.56 202.461 1143.75 158.731 1169.57 160.035L1169.57 160.042ZM1121.21 150.126C1134.88 154.976 1121.21 160.474 1125.12 161.651C1128.2 160.981 1136.24 156.682 1136.78 162.173C1129 162.113 1123.07 166.687 1116.41 170.881C1112.87 172.505 1113.9 178.271 1110.38 178.726C1107.07 178.301 1102.58 178.107 1102.55 182.428C1101.61 190.25 1091.05 197.648 1084.66 201.842C1076.91 203.548 1098.17 189.021 1094.3 187.755C1090.19 188.142 1076.02 204.725 1073.77 200.449C1074.95 192.284 1065.04 194.81 1062.23 199.779C1039.89 210.834 1117.04 142.833 1122.42 143.243C1123.93 142.461 1132.6 138.214 1131.8 141.202C1130.17 144.763 1121.52 147.191 1121.2 150.126L1121.21 150.126ZM1200.4 95.6247C1202.84 97.1667 1208.22 97.1444 1209.67 98.0384C1209.81 102.717 1201.02 100.206 1197.81 101.212C1181.57 108.103 1163.01 111.209 1146.19 116.484C1144.08 117.259 1118.45 127.353 1127.67 128.858C1151.38 120.156 1127.82 142.133 1117.95 141.507C1109.3 150.916 1096.02 156.98 1086.63 165.935C1079.91 175.992 1066.53 170.926 1071.04 178.279C1066.16 191.86 1049.8 186.168 1071.98 167.171C1067.01 165.458 1055.35 180.275 1050.19 184.611C1030.38 202.066 1010.8 222.5 993.686 242.555C989.234 248.842 981.28 250.861 975.833 256.128C972.638 261.298 969.937 264.963 964.856 268.696C940.748 289.972 913.707 310.57 882.467 319.54C864.091 326.334 770.096 323.235 838.583 309.512C929.464 301.772 986.937 216.876 1047.39 155.095C1079.15 122.637 1111.74 96.5558 1150.42 91.4006C1155.45 90.7302 1147.61 99.1856 1147.8 101.577C1148.56 103.506 1154.75 96.2802 1156.56 95.7885C1158.49 94.6785 1160.75 95.647 1162.73 95.4235C1167.14 91.6688 1167.89 91.6614 1169.73 97.6584C1172.09 98.8802 1174.13 94.4476 1176.24 93.196C1184.59 88.1899 1193.78 88.3761 1200.38 95.6172L1200.4 95.6247ZM1240.97 35.9676C1241.73 37.6959 1246.51 45.9949 1241.81 44.8253C1239.72 43.4247 1210.46 35.1183 1216.69 31.5648C1224.15 33.1143 1234.86 31.7138 1240.97 35.9676L1240.97 35.9676ZM1158.02 31.3711C1156.12 31.1029 1149.22 33.1665 1150.41 29.5609C1151.95 26.0595 1165.13 28.5477 1158.02 31.3711ZM1185.76 26.7225C1188.21 26.0744 1189.3 26.9535 1187.35 28.6967C1182.54 31.8107 1172.52 30.6708 1166.01 30.1792C1170.92 26.3053 1179.63 25.2848 1185.76 26.7225ZM1129.1 15.6299C1157.23 9.8266 1118.85 24.5919 1113.81 22.7742C1118.09 19.8018 1124.39 17.5221 1129.1 15.6299ZM1065.56 35.8186C1064.93 33.8667 1076.37 28.8531 1077.48 30.6559C1076.47 33.7401 1068.32 37.4426 1065.56 35.8186ZM1119.73 3.06235C1107.24 9.36478 1094.23 12.8139 1081.06 19.0642C1079.04 20.0699 1068.16 25.3071 1070.38 20.9863C1073.28 18.0884 1130.42 -7.30018 1119.73 3.05488L1119.73 3.06235ZM21.0757 317.566C17.1549 320.389 16.0176 329.507 16.9903 333.396C17.7984 334.61 18.7711 331.735 19.0779 331.057C19.265 327.571 28.9023 316.292 21.0757 317.566ZM-16.6432 411.856C-19.9579 405.338 -25.8092 416.564 -20.9456 417.95C-19.0376 418.129 -16.2915 413.495 -16.6432 411.856ZM-15.6331 420.327C-9.24309 423.813 -10.9042 405.003 -15.1692 411.35C-15.5433 413.689 -17.2418 418.404 -15.6331 420.327ZM-53.0527 397.873C-49.8577 393.359 -53.3744 389.708 -56.0082 386.475C-56.3749 379.145 -64.5232 383.391 -62.1513 389.016C-57.4299 398.819 -62.4955 395.743 -65.2341 402.552C-65.0994 404.831 -58.1706 408.824 -57.602 406.336C-60.4902 400.86 -55.4994 401.725 -53.0527 397.881L-53.0527 397.873ZM1105.66 139.25C1100.64 143.548 1092.77 145.724 1087.28 148.152C1086.71 154.306 1096.72 149.419 1100.16 147.519C1106.51 145.068 1110.46 138.952 1116.42 136.024C1118.37 134.683 1122.98 135.592 1123.42 132.977C1119.2 124.567 1110.35 136.918 1105.66 139.257L1105.66 139.25ZM1101.73 149.672C1096.2 145.858 1082.09 167.916 1081.88 159.349C1085.38 153.903 1085.49 149.523 1079.37 156.734C1070.93 173.816 1075.04 172.513 1088.19 163.074C1090.89 158.239 1099.77 154.269 1101.73 149.672ZM-80.5955 332.182C-81.6729 327.988 -84.7856 333.329 -86.4392 335.013C-87.6738 336.421 -92.8741 339.922 -90.809 341.345C-88.265 341.755 -80.3486 334.67 -80.5955 332.189L-80.5955 332.182ZM910.526 56.6926C907.698 60.4323 898.854 78.766 910.025 70.1617C918.024 64.9022 933.7 57.4153 936.311 50.0475C935.48 45.5852 927.848 53.8095 924.01 54.4055C913.295 58.1155 919.782 53.2508 923.928 49.6154C921.533 49.012 913.235 54.4055 910.526 56.6926ZM962.619 89.1584C964.28 83.0869 999.448 49.3993 972.623 70.6309C965.994 77.4846 951.553 84.6587 957.104 95.8481C957.232 104.229 960.509 100.579 963.053 95.647C964.25 92.7938 962.604 91.2666 962.627 89.1584L962.619 89.1584ZM993.903 47.604C989.997 48.5501 974.883 59.1287 976.626 62.4587C978.953 61.0879 995.07 49.3397 993.903 47.604ZM968.829 39.7073C956.551 49.4068 946.644 60.9985 936.251 72.9478C931.604 78.1179 937.441 76.3821 940.134 74.2441C948.013 67.4872 954.777 59.7693 963.472 54.2118C974.561 38.642 987.289 45.4063 999.305 31.2891C1002.17 24.5099 1007.5 20.1146 1013.72 15.831C1015.82 14.8253 1014.06 19.5932 1019.99 16.7623C1021.28 16.0769 1023.29 15.1532 1023.12 13.626C1019.72 10.5493 1024.87 7.11495 1020.54 8.46335C1002.58 17.1944 984.191 27.244 968.829 39.7222L968.829 39.7073ZM-174.35 533.547C-170.317 532.28 -174.717 525.501 -177.807 526.105C-182.327 527.423 -178.578 535.268 -174.35 533.547ZM-176.071 483.418C-176.251 479.373 -182.888 475.886 -184.968 479.619C-182.551 484.438 -181.01 484.304 -181.152 490.562C-175.862 496.745 -173.991 488.454 -176.071 483.418ZM783.625 93.129C790.688 90.693 790.261 77.4995 793.554 71.4951C799.121 57.7132 810.629 36.504 799.188 24.51C797.549 37.1894 790.246 48.5948 791.571 61.7584C791.93 74.5793 789.596 64.0529 786.775 65.6471C785.937 72.8957 781.851 85.5601 783.617 93.1216L783.625 93.129ZM1099.63 -4.28303C1100.75 -3.21772 1109.75 -8.22403 1108.66 -9.95981C1107.5 -11.0847 1098.21 -7.16605 1099.63 -4.28303ZM852.283 89.1658C854.872 90.7376 858.838 88.242 861.397 88.0334C867.787 88.3314 848.774 92.7863 850.959 101.48C850.607 128.187 858.808 104.281 864.861 95.5129C867.061 87.579 874.528 78.4084 875.868 71.0407C873.226 67.1222 865.138 74.5644 861.3 75.1827C854.88 76.9334 848.587 83.0645 852.283 89.1658ZM1005.25 44.5645C1032.68 30.5516 1059.46 9.52864 1090.01 -0.662524C1096.44 -1.81723 1095.16 -8.37296 1099.44 -11.7998C1096.46 -12.2244 1088.04 -9.29676 1085.78 -6.88306C1085.09 -4.69285 1086.71 -3.15069 1083.31 -1.36276C1057.08 9.37968 1024.24 23.6979 1005.26 44.5645L1005.25 44.5645Z" stroke="white" stroke-opacity="0.3" stroke-width="0.85" stroke-linejoin="round"/>
</g>
<defs>
<clipPath id="clip0_34_2730">
<rect width="239" height="550" fill="white"/>
</clipPath>
</defs>
</svg>
