<svg width="1440" height="1067" viewBox="0 0 1440 1067" fill="none" xmlns="http://www.w3.org/2000/svg">
<g clip-path="url(#clip0_138_960)">
<path d="M1725.08 1008.7C1739.21 1016.9 1753.95 1019.16 1769.36 1022.33C1788.93 1031.32 1807.2 1040.31 1828.19 1046.21C1843.33 1056.86 1860.58 1049.38 1877.34 1056.78C1880.56 1057.63 1903.99 1061.49 1892.53 1062.58C1851.68 1061.81 1811.71 1054.7 1771.51 1051.21C1760.54 1048.86 1770.07 1045.7 1774.64 1045.98C1779.56 1044.13 1801.26 1051.57 1792.33 1043.38C1759.3 1031.77 1728.85 1014.84 1696.44 1001.69C1685.67 999.226 1677.34 1002.81 1667.52 997.775C1627.38 977.953 1587.61 946.743 1545.2 935.587C1545.2 942.866 1551.23 959.029 1547.3 964.486C1544.43 963.446 1540.25 956.295 1537.44 958.349C1536.36 959.851 1535.12 962.663 1532.95 961.854C1525.22 960.442 1514.67 944.754 1510.09 958.529C1506.46 975 1519.27 977.208 1531.2 981.676C1542.3 984.808 1549.48 991.125 1559.04 995.413C1564.73 993.269 1557.57 980.777 1570.42 994.719C1586.42 1012.42 1615.11 1013.31 1638.02 1019.88C1660.75 1029.74 1685.75 1033.04 1708.86 1042.12C1462.44 1051.23 1298.42 852.923 1148.9 669.351C1130.02 652.366 1119.27 631.556 1104.98 610.283C1091.16 585.801 1066.11 572.513 1048.18 552.357C1038.71 545.078 1027.7 532.792 1016.77 527.323C1015.14 527.567 1017.32 529.621 1017.84 530.52C1047.78 558.045 1004.89 559.701 994.838 582.655C988.456 598.536 977.936 611.04 966.345 623.442C949.455 664.318 911.176 691.535 875.566 717.16C869.635 724.683 815.394 743.247 846.763 749.448C903.582 734.17 981.868 741.578 999.428 808.426C1008.39 841.356 975.435 772.608 967.57 772.171C966.783 771.927 966.551 772.466 966.861 773.686C979.186 795.305 955.064 787.307 974.803 807.797C993.214 838.39 945.136 786.678 936.717 795.318C938.212 803.188 967.995 818.26 968.137 828.453C956.662 823.074 944.607 811.828 932.153 807.476C907.604 798.233 881.329 794.124 856.355 786.344C851.043 784.971 854.911 790.799 852.1 793.149C785.147 799.67 843.398 804.818 789.969 838.762C770.991 852.512 747.113 862.962 734.98 884.453C731.241 890.474 727.464 895.879 720.721 898.819C656.307 903.71 591.855 911.58 528.048 925.766C504.48 930.991 473.472 929.399 454.545 945.755C434.677 981.573 447.364 977.94 403.644 984.308C391.911 988.788 384.124 1000.62 370.741 1001.69C358.776 1003.76 347.649 995.978 336.69 995.207C313.999 1005.86 297.831 987.89 280.284 976.31C266.308 969.647 250.707 978.389 236.203 978.826C203.325 981.471 168.618 978.762 141.504 959.004C137.713 955.91 135.611 952.867 136.553 951.494C138.564 949.504 143.682 951.519 146.957 951.609C154.409 952.559 146.777 944.895 144.417 940.928C130.261 920.926 123.569 895.16 111.128 874.709C109.284 861.203 94.1992 851.446 98.9052 837.093C105.674 811.148 125.942 784.021 149.987 770.99C159.154 771.696 163.318 762.761 167.444 755.905C178.519 741.373 174.02 731.41 163.306 717.198C159.296 708.867 162.906 710.651 169.481 706.453C173.117 703.757 175.722 699.957 179.383 697.171C195.538 690.88 201.778 662.906 177.243 667.143C171.17 668.144 166.078 667.387 171.544 660.826C202.513 637.397 248.206 640.555 283.146 625.496C329.496 589.293 369.413 554.591 393.278 500.633C404.25 481.491 418.741 463.634 428.514 443.927C438.39 422.821 440.169 389.93 471.177 398.917C528.744 394.308 509.727 344.624 586.621 369.838C593.248 363.458 596.149 334.996 603.356 323.634C605.341 317.973 606.785 321.786 609.725 322.466C617.667 294.646 641.635 275.581 665.938 260.15C671.134 257.223 677.001 256.773 672.424 264.13C666.893 272.59 655.663 280.28 648.636 287.765C636.736 287.187 590.437 396.169 612.69 371.764C625.313 348.964 633.216 322.928 652.414 303.838C665.861 293.272 681.616 277.391 699.654 277.52C695.799 285.942 677.323 288.355 671.534 295.994C650.815 313.762 639.663 344.804 622.966 366.757C621.896 368.927 615.217 376.681 618.892 377.567C632.597 364.087 643.724 345.806 660.575 334.418C679.682 315.495 700.711 289.575 730.055 290.268C741.027 290.833 831.845 287.379 784.103 294.659C719.908 290.936 688.372 309.23 650.725 360.184C648.752 362.174 645.116 367.219 646.006 367.759C661.671 367.951 670.799 346.935 684.582 340.041C700.092 330.002 718.942 319.552 737.34 313.852C752.566 308.37 831.781 299.948 819.507 279.394C829.267 270.818 843.746 280.935 855.427 273.45C892.223 249.263 931.173 214.908 961.394 184.829C980.527 161.117 986.909 148.908 1015.54 137.443C1020.65 132.629 1022.13 124.028 1030.15 125.234C1037.06 125.851 1038.16 119.971 1045.02 117.852C1049.74 116.402 1055.46 116.261 1060.01 114.245C1062.8 113.051 1064.43 112.152 1065.81 109.944C1066.9 107.03 1063.66 103.23 1067.5 101.51C1077.21 102.896 1150.3 76.103 1131.26 95.7324C1122.07 104.899 1108.53 110.958 1098.39 119.085C1032.47 172.183 966.564 232.509 913.02 294.107C932.759 294.325 971.824 248.544 986.896 232.163C1003.57 208.695 1008.67 210.261 1031.13 199.952C1043.2 191.209 1059.57 179.116 1071.24 170.463C1074.27 167.947 1080.89 162.811 1076.58 160.359C1066.73 146.225 1124.72 111.69 1136.91 99.5966C1152.27 86.7457 1172.59 72.457 1193.35 80.866C1209.31 84.5633 1227.93 68.1306 1245.63 70.5313C1284.16 71.3144 1322.59 67.5015 1360.99 64.5103C1364.25 64.4332 1366.27 64.6514 1366.81 67.1934C1369.5 79.9416 1388.36 70.005 1398.21 73.1632C1419.2 87.0026 1443.06 89.904 1467.82 82.0984C1480.34 78.9531 1497.95 70.1718 1509.58 76.3469C1518.76 95.6939 1510.26 119.252 1492.61 130.28C1477.85 137.572 1461.2 125.979 1445.38 127.16C1399.12 139.42 1349.64 134.966 1304.8 154.056C1294.78 159.345 1270.94 169.192 1295.86 153.607C1316.85 141.077 1345.98 139.716 1368.36 132.719C1355.16 107.698 1223.83 134.555 1190.99 133.707C1190.67 133.746 1155.23 137.431 1167.29 141.462C1175.39 142.9 1193.6 134.914 1179.23 148.792C1145.8 163.736 1119.14 191.466 1099.8 222.355C1061.59 256.388 1105.77 249.34 1128.93 243.717C1168.65 230.211 1218.65 246.336 1246.87 209.773C1254.52 202.982 1279.14 196.922 1274.27 184.996C1271.62 183.75 1267.45 184.213 1264.46 183.956C1251.55 184.225 1261.26 172.889 1268.12 172.761C1283.53 174.327 1299.51 170.912 1315.07 169.436C1354.5 166.599 1301.47 199.259 1288.06 199.451C1279.05 201.21 1258.9 219.299 1277.36 221.096C1296.26 220.313 1312.97 212.212 1329.39 204.368C1351.56 192.968 1358.51 164.519 1380.07 152.284C1408.66 138.085 1355.73 172.337 1351.24 198.976C1344.91 214.356 1362.12 206.705 1367.96 201.326C1374.58 195.677 1377.51 186.498 1381.38 178.808C1390.63 157.573 1413.18 139.459 1437.08 141.513C1477.25 149.1 1517.73 145.852 1557.9 139.818C1617.13 133.143 1677.01 139.228 1735.95 131.923C1750.03 130.318 1765.63 117.287 1779.75 118.713C1794.96 93.139 1815.08 66.3461 1819.8 36.3434C1827.52 3.28538 1829.74 41.4145 1826.69 51.9417C1825.37 64.8568 1822.45 79.1456 1816.15 90.8667C1811.91 101.394 1790.89 117.519 1794.32 126.351C1803.14 121.306 1808.55 108.044 1814.2 100.727C1820.66 92.2919 1827.73 84.8714 1830.02 73.9975C1833.13 64.0865 1831.54 52.545 1834.7 42.7624C1838.27 35.1109 1842.02 27.9473 1841.39 19.1275C1838.25 -2.59452 1854.27 -32.8153 1857.93 6.25097C1851.38 27.0743 1843.51 157.933 1859.39 71.2631C1861.61 64.7798 1865.6 59.298 1866.88 52.4553C1866.95 37.6915 1872.84 24.5195 1874.82 10.0766C1875.3 3.31096 1874.27 -10.9521 1882.7 -12.1461C1899.84 -5.05946 1870.31 93.5628 1861.5 109.97C1849.37 136.134 1869.2 132.103 1877.08 111.433C1893.49 86.1167 1881.13 142.604 1884.83 149.498C1888.21 153.825 1898.06 149.562 1902.66 148.163C1916.27 142.039 1920.08 116.389 1931.54 109.764C1943.5 130.138 1933.28 157.933 1935.57 180.477C1936.79 185.227 1941.02 178.602 1944.21 179.372C1954.99 191.312 1961.01 164.236 1967.28 157.253C1969.35 154.723 1974.68 145.865 1976.66 152.374C1978.17 155.596 1979.18 158.922 1979.69 162.542C1978.75 174.468 1995.84 167.716 1984.86 183.956C1982.08 190.375 1975.48 199.991 1974.56 206.114C1983.5 204.548 1989.51 188.282 1998.83 187.14C2009.04 187.294 2003.06 201.223 2000.81 207.295C1999.42 230.943 1908.69 306.585 1943.75 282.475C1992.01 242.151 2037.15 188.59 2055.29 127.519C2055.32 114.746 2062.66 105.245 2069.38 95.0263C2072.64 89.2748 2088.31 49.8747 2085.44 75.6793C2077.91 107.505 2057.68 134.08 2047.06 164.493C2046.12 167.112 2041.17 177.472 2046.35 171.464C2047.95 170.476 2060.93 149.485 2060.93 156.418C2061.17 169.307 2036.82 196.896 2041.23 203.238C2044.71 201.094 2050.28 192.198 2053.84 193.315C2034.01 233.318 2096.2 155.455 2101.37 147.675C2154.5 78.5422 2084.93 180.117 2073.13 197.436C2068.71 209.606 2095.49 174.083 2095.19 181.439C2090.46 194.868 2080.22 208.13 2079.9 222.483C2080.94 227.04 2090.39 209.953 2093.22 212.418C2094.97 216.423 2090.69 224.37 2089.26 228.979C2084.57 244.808 2107.86 210.261 2109.45 205.986C2110.31 204.317 2118.55 188.179 2117.48 197.526C2109.98 214.536 2102.2 232.651 2094.13 249.738C2088.15 266.222 2111.69 231.046 2115.42 243.383C2116.94 247.556 2114.1 246.952 2110.75 246.541C2107.98 247.658 2112.3 255.438 2114.83 256.709C2140.23 267.416 2156.83 196.191 2167.96 179.629C2180.08 157.92 2175.19 193.969 2168.1 200.838C2165.39 207.051 2147.6 238.582 2164.55 231.559C2170.03 230.147 2169.89 214.96 2174.68 217.386C2179.66 223.099 2146.76 269.56 2162.9 259.033C2168.94 251.869 2169.16 252.588 2177.61 252.627C2182.98 249.122 2191.22 237.812 2186.03 232.163C2184.37 230.699 2182.84 229.505 2184.32 228.619C2195.66 223.664 2200.1 222.586 2207.33 210.762C2220.96 194.753 2234.85 177.139 2249.92 162.901C2223.18 204.42 2192.66 247.26 2163.83 288.856C2148.3 324.481 2118.18 349.606 2096.94 381.47C2061.46 427.366 2007 455.905 1951.63 471.015C1901.1 508.079 2102.99 436.134 2112.63 387.722C2143.98 380.173 2156.52 346.037 2179.23 326.882C2189.42 322.145 2189.17 320.707 2195.33 311.271C2203.8 303.774 2209.46 291.706 2218.14 284.863C2221.59 282.796 2217.21 294.235 2223.13 288.047C2227.73 283.592 2231.62 277.468 2235.66 271.614C2258.4 234.679 2285.22 201.095 2313.66 168.242C2316.64 162.799 2336.28 137.918 2337.04 153.542C2323.03 157.74 2328.36 178.474 2315.51 186.575C2312.44 188.847 2312.32 184.135 2310.04 183.416C2307.21 182.71 2301.76 188.462 2298.62 191.928C2279.17 217.977 2246.09 264.887 2226.81 298.24C2236.82 290.846 2248.01 280.986 2259.38 273.668C2272.62 263.205 2256.03 293.375 2267.72 290.294C2273.99 286.622 2272.8 297.329 2278.4 293.375C2305.65 267.557 2333.75 241.265 2360.04 214.369C2366.77 210.222 2364.02 196.062 2367.93 195.356C2387.59 196.909 2419.98 160.449 2442.53 150.551C2450.44 138.804 2447.05 131.332 2464.03 128.11C2467.01 131.166 2449.06 144.787 2464.52 139.831C2474.93 137.084 2477.26 121.858 2486.67 120.253C2483.68 132.193 2502.93 127.122 2507.55 121.986C2508.45 119.868 2505.07 120.407 2503.3 120.343C2489.57 120.035 2518.14 109.033 2516.85 103.654C2512.83 97.2345 2464.26 125.979 2476.99 104.989C2475.51 98.0561 2417.23 133.374 2442.46 112.948C2453.67 103.307 2473.11 101.176 2482.3 90.7769C2464.06 92.3945 2444.06 105.066 2427.35 113.5C2424.33 114.874 2414.08 121.19 2414.59 116.453C2415.89 105.772 2498.74 84.3836 2472.59 77.8875C2445.14 73.0732 2466.96 61.3521 2429.29 79.3639C2426.58 80.5065 2418.97 84.3964 2418.34 83.1126C2419.44 81.8545 2422.04 80.0571 2423.9 78.7733C2440.57 64.6514 2467.8 59.2464 2484.76 50.0672C2480.97 46.909 2452.87 57.2566 2457.15 51.043C2468.12 38.359 2500.75 44.5084 2507.15 30.8102C2504.12 29.8088 2491.51 33.8656 2489.84 32.5048C2487.06 30.5534 2495.65 22.4397 2493.08 20.5397C2462.56 27.7675 2430.87 35.894 2401.44 49.5794C2389 55.7032 2356.39 81.7132 2379.62 50.2342C2369.94 47.8207 2349.04 70.0434 2341.64 63.4446C2344.77 57.5263 2356.9 55.0614 2358.17 49.1302C2307.56 59.8628 2284.85 114.258 2241.95 136.365C2236.14 137.225 2185.49 206.859 2201.22 171.156C2241.81 112.743 2300.38 70.1717 2359.95 33.1338C2365.19 29.4493 2373.54 26.8304 2376.22 20.9891C2375.64 19.1276 2368.79 19.7309 2371.05 17.266C2417.86 -8.5899 2469.59 -33.9836 2523.02 -43.1885L2523.07 -43.2656C2544.91 -42.9318 2569.1 -49.5049 2589.98 -45.0886C2597.15 -37.4756 2588.88 -20.953 2577.58 -22.6091C2548.34 -31.6599 2546.6 -17.5637 2520.31 -17.615C2512.43 -28.5659 2495.8 -17.0501 2486.65 -11.7352C2472.83 -10.5541 2459.16 -3.4546 2446.64 1.98874C2440.54 3.04147 2385.73 29.4365 2412.36 26.5736C2414.7 26.7276 2445.71 14.3133 2433.08 23.6209C2430.06 26.1115 2403.14 35.4447 2412.28 37.3062C2424.82 32.569 2439.79 29.0385 2450.6 21.4384C2452.56 18.1647 2449.01 15.122 2454.39 12.6186C2563.21 -28.6173 2616.67 -29.5802 2711.71 43.3529C2727.38 47.6794 2744.53 56.3067 2757.19 67.2832C2750.05 68.6441 2741.24 56.8843 2732.77 57.3721C2733.08 61.2107 2746.49 68.0663 2750.77 71.2758C2788.7 103.358 2715.92 56.2552 2701.06 53.6106C2679.53 50.5166 2711.37 73.1886 2717.7 73.8434C2730.35 78.4522 2816.67 138.38 2765.35 113.166C2760.27 113.988 2775.64 124.015 2779.58 125.928C2797.43 134.889 2818.71 141.051 2830.75 158.061C2832.94 165.546 2825.72 156.816 2819.81 154.03C2784.84 139.395 2753.63 115.49 2720.04 98.0946C2654.5 77.7719 2796.48 149.524 2797.74 159.23C2797.44 164.082 2788.12 161.502 2803.22 170.668C2815.12 176.548 2825.45 184.97 2835.89 192.904C2850.86 199.978 2866.38 205.254 2877.26 218.58C2882.62 223.625 2891.06 228.812 2895.17 233.305C2900.65 239.314 2898.45 247.915 2907.15 251.715C2912.48 255.515 2910.45 247.183 2911.34 246.002C2915.26 247.478 2920.84 253.525 2921.41 257.903C2922.57 262.628 2919.22 266.749 2922.98 268.109C2935.19 270.228 2927.65 272.898 2929.78 280.267C2934.52 285.364 2955.6 293.76 2951.45 303.876C2945.08 305.597 2942.01 297.534 2938.16 293.631C2923.25 287.906 2907.55 279.728 2895.47 268.546C2879.53 264.322 2920.9 294.967 2923.18 295.942C2946.04 312.696 2966.68 331.183 2984.26 352.25C2986.11 355.96 2982.68 359.85 2979.7 357.809C2978.14 356.423 2976.79 352.25 2975.2 350.594C2948.72 346.178 2930.95 318.576 2905.42 310.27C2900.28 309.024 2904.5 320.925 2898.04 316.894C2893.06 315.867 2865.15 289.228 2874.89 305.532C2912.85 344.085 2963.84 369.723 2996.27 414.63C3012.13 444.749 2978.02 408.096 2966.51 401.651C2952.33 391.496 2955.76 403.718 2965.96 409.867C2981.78 425.71 3002.89 437.033 3018.87 452.387C3021.03 461.233 3027.51 460.745 3033.05 466.085C3038.76 482.005 3057.07 490.85 3070.63 500.196C3106.21 520.262 3152.71 529.454 3175.21 566.467C3182 574.619 3196.44 579.613 3203.26 586.892C3207.2 592.194 3205.04 596.418 3211.21 602.323C3225.78 616.342 3242.23 629.899 3252.99 647.013C3253.13 649.439 3251.28 648.579 3247.91 647.192C3240.74 645.998 3229.46 632.018 3223.87 635.869C3224.61 641.954 3230.76 650.376 3224.51 655.396C3226.56 664.524 3243.76 673.767 3247.87 682.42C3199.9 652.084 3140.72 578.663 3071.3 564.425C3046.12 555.143 3019.58 550.56 2994.85 562.551C2990.96 564.477 2970.51 565.786 2980.37 570.035C2986.49 571.858 2997.98 570.331 3004.76 568.61C3009.43 567.712 3011.53 568.251 3010.22 571.101C3009.34 573.887 3004.89 578.65 3008.37 580.768C3029.92 582.835 3055.81 581.102 3076.37 585.865C3077.66 587.47 3075.82 589.472 3075.6 591.193C3075.42 596.944 3087.15 596.983 3090.02 600.834C3054.54 599.679 2975.46 598.408 2955.33 632.929C2964.4 628.333 2972.65 628.462 2982.97 625.92C2992.7 621.824 3005.94 613.043 3014.24 611.721C3016.17 611.194 3020.11 611.079 3018.25 613.852C3013.87 619.629 3002.29 623.737 2998.21 629.386C2994.06 636.716 3007.19 629.771 3010.98 629.822C3030.46 625.047 3051.44 628.205 3067.98 639.913C3074.79 643.508 3083.18 645.061 3090.1 647.924C3091.02 648.412 3091.52 648.99 3090.32 649.426C3076.14 652.148 3034.66 640.825 3026.22 655.55C3038.99 661.956 3058.62 655.447 3073.14 661.661C3077.25 662.919 3073.66 665.397 3073.51 668.26C3077.24 675.539 3082.52 682.42 3084.84 690.572C3086.11 695.643 3067.32 693.564 3072.76 700.419C3074.61 701.998 3079.71 703.102 3085 704.039C3096.64 705.862 3105.47 708.391 3092.42 712.641C3073.87 723.065 3055.28 739.203 3039.69 753.569C3031.62 762.311 3006.12 765.007 3006.09 778.269C3008.01 778.398 3014.74 775.74 3014.95 777.371C3015.08 778.719 3013.99 779.669 3012.69 781.684C2999.22 794.907 2940.34 879.639 2993.7 824.191C3009.6 817.528 2992.7 839.212 2994.53 846.183C2973.5 879.074 2957.03 903.582 2999.21 854.951C3008.92 849.046 2980.45 892.836 2980.54 897.817C2974.94 904.583 2968.12 912.183 2964.19 920.502C2960.9 926.267 2938.71 945.357 2961.47 935.703C2935.5 966.565 2893.21 986.195 2863.03 1014.35C2829.5 1044.27 2791.42 1073.78 2768.07 1112.74C2742.47 1136.27 2710.87 1151.91 2681.92 1169.51C2679.71 1171.45 2679.9 1172.42 2682.67 1171.77C2699.11 1164.04 2714.38 1156.88 2732.63 1153.54C2741.97 1150.19 2750.02 1139.98 2759.69 1138.43C2762.87 1139.96 2753.33 1147.04 2755.52 1148.97C2757.21 1149.16 2759.73 1149.5 2758.37 1151.63C2740.42 1171.92 2709.6 1177.48 2690.05 1196.01C2689.16 1199.99 2701.34 1196.65 2696.4 1202.08C2593.59 1275.59 2440.46 1244.29 2322.79 1225.86C2320.33 1225.45 2300.64 1219.01 2309.92 1225.86C2351.26 1246.81 2401.55 1239.98 2444.13 1255.28C2454.89 1258.32 2466.77 1257.86 2477.94 1257.53C2484.13 1256.69 2512.06 1255.6 2505.24 1264.05C2496.42 1266.75 2485.94 1263.47 2476.71 1264.67C2468.58 1268.85 2463.68 1271.73 2453.61 1270.48C2406.45 1270.46 2485.92 1281.18 2491.97 1284C2311.51 1280.75 2089.35 1188.66 1943.05 1063.02C1920.31 1050.73 1891.58 1049.01 1865.97 1042.62C1864.22 1041.75 1860.67 1041.03 1863.01 1039.34C1870.59 1037.5 1880.87 1040 1888.4 1038.36C1906.42 1031.63 1871.66 1023.4 1866.49 1017.74M2243.78 -175.639C2219.67 -153.968 2204.52 -121.039 2177.23 -101.756C2167.89 -94.1302 2156.52 -90.6125 2170.27 -104.413C2237.32 -172.34 2209.6 -158.192 2160.87 -104.721C2140.06 -73.6789 2144.76 -31.2876 2131.42 2.88734C2128.05 22.7093 2092.82 79.2355 2137.84 43.6098C2155.98 29.6676 2181.68 25.9061 2193.1 4.44081C2194.83 1.14142 2199.85 -5.59868 2194.52 -6.86965C2190.93 -7.62709 2191.98 -9.57834 2193.52 -11.902C2198.2 -17.9103 2264.05 -92.4869 2248.68 -85.9009C2216.07 -54.6402 2184.09 -22.3651 2146.07 2.28404C2143.02 3.59352 2141.6 2.70757 2142.56 0.640641C2190.11 -40.7237 2242.16 -81.6513 2283.13 -129.897C2291 -146.188 2268.47 -118.356 2263.03 -118.047C2257.33 -115.197 2275.95 -142.055 2262.31 -133.915C2225.9 -95.1955 2205.15 -82.3062 2251 -136.663C2263.21 -161.299 2199.03 -85.7212 2191.14 -84.4117C2186.58 -80.3934 2148.5 -48.2852 2166.53 -69.8147C2177.85 -74.5391 2301.37 -203.279 2243.76 -175.626L2243.78 -175.639ZM2074.65 -208.98C2068.64 -205.988 2064.09 -207.632 2061.77 -201.302C2055.36 -198.594 2048.25 -194.832 2057.7 -189.299C2059.45 -179.863 2052.13 -170.042 2049.48 -160.349C2048.75 -156.138 2047.01 -141.811 2040.55 -145.893C2040.46 -153.545 2047.46 -160.054 2047.69 -168.373C2048.1 -172.173 2046.07 -177.911 2042.08 -172.571C2036.54 -160.041 2032.87 -144.994 2025.54 -132.978C2024.32 -131.104 2021.16 -125.609 2025.26 -125.622C2028.09 -125.699 2031.2 -129.82 2034.13 -130.577C2037.76 -130.462 2042.19 -120.525 2042.43 -117.495C2036.86 -113.926 2026.7 -116.468 2020.45 -112.54C2007.92 -102.552 2015.3 -81.5487 2005.3 -68.3255C2004.17 -50.8144 1994.53 -34.8053 1993.37 -17.2557C1992.78 -11.3758 1969.81 33.6859 1986.42 22.1958C1987.11 21.5539 1988.09 21.2844 1988.41 22.3371C1990.81 29.5136 1980.93 33.3009 1974.98 34.2509C1964.53 40.824 1982.9 68.9265 1967.34 75.3584C1964.16 76.3854 1960.2 74.8834 1957.98 77.9004C1952.81 89.5188 1952.9 109.79 1960.83 120.677C1964.25 122.448 1966.57 110.201 1968.16 106.311C1973.94 97.0932 1970.26 90.0066 1973.31 81.6105C1991.87 69.7481 1990.18 46.5883 1999.79 28.9488C2008.63 -21.2995 2034.95 -74.0898 2049.43 -120.114C2050.35 -130.064 2055.67 -137.754 2058.57 -147.061C2058.99 -154.418 2060.16 -161.312 2065.23 -167.063C2069.28 -171.634 2071.16 -178.579 2071.93 -184.651C2072.77 -191.173 2077.71 -195.628 2080.26 -201.572C2082.44 -207.76 2083.2 -218.608 2074.63 -208.98L2074.65 -208.98ZM2141.55 -204.05C2070.24 -148.255 2041.37 -55.9239 2024.07 30.9515C2024.28 41.2476 1997.58 119.907 2020.22 104.385C2035.75 96.2074 2055.66 93.9222 2063.36 76.334C2077.77 29.0514 2121.65 -50.9298 2117.43 -95.08C2110.71 -88.3143 2101.18 -76.5932 2092.66 -70.1099C2081.33 -61.2003 2088.32 -71.9073 2084.62 -72.1127C2082.77 -72.1769 2078.75 -69.3397 2077.54 -66.6309C2075.49 -61.945 2076.51 -56.2704 2072.5 -52.4319C2069.26 -48.6061 2062.18 -47.6048 2063.36 -53.5745C2080.56 -76.8756 2091.35 -103.438 2103.93 -129.756C2105.97 -145.547 2169.75 -200.93 2141.54 -204.05L2141.55 -204.05ZM2190.78 -213.075C2178.41 -196.334 2160.48 -176.063 2153.49 -156.652C2145.4 -112.193 2144.58 -94.0403 2176.29 -142.799C2180.75 -148.23 2186.16 -161.453 2176.24 -152.145C2170.15 -147.241 2164.28 -132.477 2159.02 -129.576C2156.44 -150.13 2182.02 -164.701 2192.03 -181.301C2201.85 -189.761 2210.39 -215.758 2192.03 -192.521C2190.87 -191.186 2179.24 -177.359 2180.08 -181.365C2180.62 -185.833 2207.08 -230.214 2190.78 -213.088L2190.78 -213.075ZM2509.47 -64.7693C2504.14 -67.6964 2493.49 -63.9349 2487.76 -61.624C2482.93 -58.0679 2481.36 -50.8144 2478.1 -46.3724C2477.34 -38.6439 2462.82 -34.2404 2463.62 -30.2606C2479.47 -28.5146 2485.01 -46.2439 2492.77 -56.0779C2500.52 -58.8638 2501.92 -39.8506 2509.45 -64.7564L2509.47 -64.7693ZM2359.38 64.9851C2343.78 74.6907 2326.83 88.6072 2310.9 99.327C2308.44 101.022 2293.03 117.044 2304.3 109.405C2315.56 98.544 2359.17 80.7374 2359.38 64.9851ZM2353.58 124.644C2347.09 140.948 2399.27 95.9121 2405.12 93.7553C2415.36 78.0158 2356.9 121.806 2353.58 124.644ZM2408.21 77.2327C2401.53 79.2098 2389.34 85.5004 2383 90.289C2376.23 95.6553 2374.13 105.156 2384.87 97.0291C2391.88 92.3047 2405.81 84.4991 2408.21 77.2327ZM2336.83 141.654C2340.8 144.17 2355.58 135.556 2352.39 131.705C2349.9 129.445 2335.77 138.804 2336.83 141.654ZM2476.54 -57.9652C2469.01 -56.8483 2457.5 -49.4792 2450.33 -45.5636C2455.25 -44.6778 2476.41 -49.9928 2476.54 -57.9652ZM1930.66 13.0038C1946.6 -5.05937 1926.6 -43.9973 1924.56 -16.8576C1927.14 -9.09054 1928.82 6.04558 1930.66 13.0038ZM926.531 199.811C920.42 206.872 912.839 214.754 904.317 218.4C899.044 224.216 893.409 233.049 886.795 237.131C879.511 244.192 892.249 241.162 895.356 238.004C913.587 224.614 959.202 190.811 964.875 170.912C955.786 166.522 947.25 183.763 942.377 189.091C937.013 193.148 929.987 192.673 926.531 199.798L926.531 199.811ZM861.809 252.742C829.525 288.881 864.078 269.368 879.91 249.148C886.37 239.776 877.358 241.483 873.528 247.889C870.112 252.96 866.553 253.91 861.809 252.755L861.809 252.742ZM873.387 228.157C875.707 231.893 912.091 187.345 896.181 199.336C890.947 202.905 883.404 211.185 876.764 215.448C871.208 217.72 866.489 224.46 873.399 228.157L873.387 228.157ZM826.056 270.921C833.083 269.74 836.861 257.479 840.857 251.779C849.534 237.478 859.05 225.551 871.182 214.806C876.507 213.47 907.115 172.389 893.809 179.501C871.672 206.974 835.546 237.478 826.044 270.921L826.056 270.921ZM2076.57 155.25C2088.94 152.541 2100.06 145.005 2107.34 133.977C2110.18 127.802 2142.16 93.8452 2125.6 96.8493C2114.17 103.782 2096.17 101.522 2090.83 115.965C2087.45 127.378 2076.66 144.748 2076.57 155.25ZM2597.89 -41.8405C2584.32 -20.6705 2649.78 -21.1584 2630.97 -28.6045C2627 -29.593 2621.51 -29.914 2621.82 -34.8438C2623.82 -42.8676 2614.8 -39.825 2608.49 -41.9304C2605.08 -42.5467 2600.84 -44.2156 2597.89 -41.8534L2597.89 -41.8405ZM2568.25 671.983C2567.9 671.906 2566.25 672.573 2566.16 672.894C2566.34 672.894 2568.01 672.188 2568.25 671.983ZM840.729 272.834C851.417 267.788 878.595 214.87 851.391 248.133C849.148 251.125 832.026 273.976 840.729 272.834ZM1493.4 195.857C1490.6 192.544 1500.18 182.749 1503.6 185.419C1506.25 187.846 1498.62 200.324 1493.4 195.857ZM1544.93 185.484C1544.14 181.35 1573.91 164.211 1573.97 171.657C1570.28 176.856 1550.77 193.032 1544.93 185.484ZM1639.75 149.781C1631.18 159.345 1608.89 157.317 1603.18 171.811C1596.39 192.493 1557.45 187.987 1584.49 168.357C1601.16 160.616 1620.24 143.336 1639.75 149.794L1639.75 149.781ZM1431.14 200.735C1425.54 182.929 1491.09 147.008 1478.94 163.8C1470.72 169.962 1459.09 175.354 1454.92 184.636C1458.19 193.725 1436.76 208.399 1431.14 200.735ZM1003.5 257.236C1004.35 255.13 1006.94 253.243 1008.3 251.343C1012.48 245.861 1003.37 244.706 1009.78 239.327C1015.66 233.935 1024.48 228.453 1029.61 222.791C1030.75 221.173 1030.44 220.159 1029.47 218.978C1024.17 211.596 1038.84 211.07 1043.14 209.285C1050.16 205.049 1056.93 193.225 1064.07 187.563C1072.83 180.079 1067.03 193.212 1065.08 196.832C1058.17 214.408 1040.88 222.984 1030.26 237.696C1025.01 242.857 1009.58 269.124 1003.49 257.248L1003.5 257.236ZM943.615 286.237C944.246 284.106 960.685 276.904 960.156 281.91C959.679 286.327 941.887 296.238 943.615 286.237ZM869.609 273.989C887.324 267.147 895.756 248.069 913.033 240.084C944.698 225.243 966.809 192.737 994.709 170.822C1002.23 163.684 999.093 169.77 996.553 173.839C987.992 188.218 972.662 198.27 960.44 210.03C955.128 220.352 952.782 226.758 941.706 232.561C935.647 235.591 906.934 267.044 905.529 255.913C903.904 248.056 893.306 264.72 890.65 266.62C887.427 271.64 849.277 289.382 869.596 274.002L869.609 273.989ZM927.718 262.204C954.651 245.9 890.212 316.368 874.573 313.197C866.643 312.824 784.618 349.413 796.97 334.649C857.399 298.176 878.827 326.754 927.73 262.204L927.718 262.204ZM833.689 295.904C833.857 303.787 816.142 325.072 805.724 319.488C803.017 313.274 828.519 294.813 833.689 295.904ZM695.206 355.1C689.352 347.423 726.626 324.867 733.227 322.825C738.59 319.642 815.445 301.168 789.286 317.613C759.206 332.801 721.662 334.47 695.193 355.1L695.206 355.1ZM1502.87 957.476C1499.64 958.041 1488.87 948.502 1493.78 945.318C1502.78 940.966 1506.5 950.698 1502.87 957.476ZM1536.99 947.873C1532.27 949.991 1523.19 934.971 1523.94 933.071C1524.95 927.884 1540.2 945.614 1536.99 947.873ZM1448.71 896.983C1453.09 903.851 1444.2 911.413 1437.45 908.627C1432.49 901.579 1441.67 893.953 1448.71 896.983ZM2228.41 1191.62C2241.34 1197.51 2256.84 1198.18 2269.08 1205.61C2274.4 1208.79 2287.48 1216.72 2278.49 1214.48C2259.16 1209.09 2239.75 1203.86 2221.86 1194.22C2205.97 1183.98 2218.32 1185.4 2228.41 1191.62ZM2689.22 1172.99C2691.83 1168.92 2706.67 1158.67 2711.2 1162.18C2713.6 1166.06 2688.36 1180.96 2689.22 1172.99ZM1918.45 1038.47C1917.72 1044.22 1900.92 1045.08 1897.97 1041.51C1898.89 1040.4 1905.38 1039.9 1907.56 1038.15C1910.64 1033.76 1917.54 1031.21 1918.45 1038.48L1918.45 1038.47ZM1877.04 984.321C1871.96 997.916 1854.49 973.524 1861.93 967.99C1867.51 970.327 1875.85 978.582 1877.04 984.321ZM1851.53 976.399C1845.65 978.646 1832.55 965.012 1833.53 960.48C1839.16 961.135 1854.39 970.057 1851.53 976.399ZM900.165 479.553C894.621 496.615 863.278 471.567 889.799 475.945C892.984 476.382 900.023 476.125 900.165 479.553ZM892.636 472.723C890.753 474.52 870.537 456.341 878.66 457.189C882.579 458.421 892.855 466.65 892.636 472.723ZM852.074 467.28C854.795 464.34 857.928 460.36 861.938 458.023C878.221 446.88 867.172 472.877 863.781 480.002C860.635 486.537 855.362 481.055 852.229 477.499C849.135 474.058 849.057 470.566 852.074 467.28ZM770.14 474.957C770.952 470.014 776.728 463.595 778.533 471.388C779.074 474.507 777.617 477.678 780.235 479.27C785.547 482.005 789.479 482.12 791.374 488.758C795.036 501.249 804.474 480.901 819.3 501.146C823.568 506.821 814.788 512.238 809.669 511.455C804.796 510.338 801.766 501.583 795.732 501.377C786.436 501.044 785.263 516.424 777.076 516.488C769.585 515.101 760.07 504.741 758.897 496.383C757.131 485.92 767.11 483.199 770.14 474.957ZM993.085 493.79C994.245 496.807 1019.21 527.927 1006.84 520.968C998.913 519.21 965.932 484.123 993.085 493.79ZM741.878 521.315C731.203 523.626 737.727 506.769 742.02 503.842C749.395 503.213 745.204 518.658 741.878 521.315ZM665.41 485.548C667.408 488.372 652.427 505.255 650.067 499.182C649.062 495.241 662.947 483.661 665.41 485.548ZM413.984 486.229C416.498 489.887 414.525 497.09 419.927 498.887C421.578 513.972 400.369 495.665 413.984 486.229ZM379.676 553.449C386.096 547.787 392.646 533.832 399.441 531.329C401.813 531.971 402.909 535.873 405.449 536.451C410.902 536.746 415.312 529.056 420.946 526.9C436.908 523.395 420.817 542.524 417.001 548.827C410.116 558.905 402.896 557.249 405.719 571.307C381.584 572 395.108 577.52 383.776 587.316C372.288 588.715 372.352 594.133 367.672 602.041C366.228 604.352 365.841 602.439 366.048 600.102C368.588 584.26 370.148 566.608 379.676 553.423L379.676 553.449ZM355.231 598.973C357.216 602.079 354.625 617.819 348.758 613.428C346.231 609.461 350.396 598.857 355.231 598.973ZM399.299 619.449C394.709 621.85 391.473 611.027 394.992 607.715C401.864 601.425 400.562 616.304 399.299 619.449ZM418.87 618.422C412.811 619.732 410.167 631.325 406.184 628.089C403.747 623.07 411.109 616.548 413.597 611.721C418.741 606.496 425.317 614.378 418.883 618.422L418.87 618.422ZM336.239 603.543C346.425 606.342 335.388 618.166 330.785 619.013C329.96 616.111 333.918 605.751 336.239 603.543ZM364.72 611.323C362.837 618.474 358.376 619.424 363.817 627.589C366.035 632.839 356.223 636.164 352.433 632.814C345.638 625.496 356.558 611.323 364.72 611.323ZM291.281 643.572C292.003 638.026 298.798 626.818 304.909 626.241C309.19 627.884 302.859 637.525 301.879 640.825C299.443 645.652 300.951 655.203 298.837 658.888C293.215 660.583 290.714 647.963 291.294 643.572L291.281 643.572ZM321.98 654.87C322.779 660.724 314.721 668.106 308.751 667.4C295.149 660.185 313.354 636.177 321.98 654.87ZM129.565 846.799C140.511 848.186 140.859 857.596 134.812 865.35C132.814 864.734 128.056 849.957 129.565 846.799ZM160.882 904.031C158.819 899.641 158.793 886.443 165.678 894.788C174.922 902.067 167.908 907.587 160.882 904.031ZM273.798 950.056C255.568 947.963 235.661 928.244 268.964 941.544C271.426 942.879 278.698 950.197 273.798 950.056ZM327.201 951.532C330.437 953.368 331.868 967.22 328.955 969.814C320.974 973.999 314.025 968.35 307.578 978.017C299.314 979.904 288.625 962.984 294.672 956.231C302.653 948.515 317.622 952.444 327.201 951.532ZM285.957 865.209C299.094 868.906 294.273 886.238 306.353 873.631C308.545 873.387 310.608 878.496 312.993 882.463C318.95 892.631 333.583 895.147 338.818 905.816C340.326 910.977 346.064 917.614 347.714 908.679C348.565 902.08 339.359 893.453 341.177 886.109C363.237 888.767 343.111 900.924 363.547 902.016C382.177 905.456 359.575 906.933 356.675 913.364C351.865 920.849 363.688 927.551 355.011 927.794C330.412 923.776 322.328 905.867 308.958 937.667C299.468 949.658 272.213 943.264 270.923 927.474C277.757 911.49 290.095 896.932 277.769 878.843C269.776 861.665 265.689 872.809 256.006 865.607C232.141 877.366 260.88 846.054 237.531 837.684C230.646 833.948 222.291 833.897 218.307 840.945C217.637 841.856 217.778 842.55 218.9 843.23C223.735 847.402 234.668 845.939 238.949 850.265C242.92 858.687 232.193 860.151 227.796 864.503C224.135 871.256 212.222 892.272 228.905 882.848C234.9 877.919 237.066 881.038 241.037 886.148C244.854 892.926 260.093 904.789 246.813 906.843C238.742 909.911 265.044 930.914 247.793 923.134C243.642 920.348 234.81 908.576 229.859 915.342C227.848 924.919 248.438 933.623 240.083 943.123C224.805 946.91 209.733 934.239 200.927 922.274C194.249 914.148 178.171 916.754 177.604 904.07C203.532 904.378 163.538 881.783 162.094 872.462C159.631 867.058 163.937 851.998 153.7 856.184C139.376 839.789 157.71 806.102 161.024 786.242C169.198 770.117 172.601 787.641 177.178 786.344C183.586 782.211 177.655 771.452 176.895 764.687C174.742 753.71 188.537 749.474 188.511 740.602C181.704 728.676 191.438 726.955 198.22 717.558C201.108 712.294 203.184 706.055 208.689 702.91C213.343 699.918 219.983 699.123 224.986 696.272C228.132 695.091 236.37 685.694 238.626 687.607C243.629 698.224 255.851 683.691 258.714 677.439C261.602 671.444 260.661 666.835 261.872 661.982C262.491 658.182 267.61 652.52 270.446 653.136C271.787 655.473 270.885 659.376 272.277 661.776C274.224 664.691 279.291 655.126 281.496 653.894C286.653 651.788 284.448 661.571 283.185 664.177C282.488 672.971 263.471 673.896 271.736 681.355C272.935 682.985 274.791 684.795 273.334 686.682C252.228 698.545 262.259 726.005 254.459 745.121C252.86 749.268 247.6 747.702 245.06 750.436C242.249 757.318 254.639 758.909 249.431 768.397C238.691 780.529 289.438 838.364 266.54 831.445C263.02 827.105 259.784 821.932 254.278 820.494C252.938 815.153 248.683 803.393 243.332 813.484C242.701 824.153 251.88 839.687 259.088 846.298C281.573 845.644 268.151 862.538 285.931 865.247L285.957 865.209ZM270.769 745.006C277.164 751.065 267.223 762.478 262.814 767.704C250.952 766.792 262.092 744.505 270.769 745.006ZM391.64 838.364C392.749 840.816 382.525 840.457 380.81 842.524C376.22 846.581 383.273 856.98 375.975 860.998C356.43 868.803 363.804 823.845 391.64 838.364ZM304.703 831.059C286.253 818.478 288.716 843.564 281.263 817.092C275.036 803.586 264.387 786.575 277.151 773.468C281.251 767.87 283.301 772.633 285.802 776.498C291.501 784.355 293.757 797.257 303.375 800.993C311.317 802.264 321.747 794.676 328.581 800.441C329.419 804.459 338.74 834.269 327.42 824.692C323.939 819.89 324.764 810.082 318.395 807.373C309.267 808.554 303.878 823.177 304.703 831.072L304.703 831.059ZM417.272 795.96C415.724 798.951 411.018 800.582 407.808 801.455C400.524 800.479 406.828 793.38 410.915 791.955C414.5 781.902 418.561 788.065 417.259 795.96L417.272 795.96ZM354.148 799.812C377.858 799.388 371.244 844.347 355.475 815.025C353.915 811.302 329.78 774.11 327.807 779.027C326.75 781.235 326.569 785.626 324.481 787.192C320.832 785.009 321.322 777.871 317.815 775.175C312.207 770.066 306.869 776.1 304.896 781.427C301.132 792.353 277.602 754.75 295.562 764.366C306.65 770.489 318.576 763.698 307.965 751.9C278.608 733.002 283.61 732.604 286.833 702.011C276.068 679.801 284.061 692.819 295.356 683.126C296.877 679.673 293.576 674.769 293.499 671.444C293.654 663.651 307.965 669.235 307.501 674.704C302.846 685.155 291.114 698.879 298.256 711.396C311.51 712.834 306.959 723.579 318.537 713.386C326.428 725.094 338.689 738.985 342.673 753.684C341.912 759.487 331.907 742.669 329.69 748.883C328.49 750.898 328.877 757.395 325.357 755.841C309.963 748.613 324.519 778.038 343.072 769.719C348.926 766.24 355.875 763.441 360.504 770.489C361.819 772.261 365.455 777.063 361.87 777.897C357.603 778.821 343.833 770.836 342.338 779.913C342.686 787.346 347.456 797.141 354.148 799.85L354.148 799.812ZM315.855 690.996C310.415 687.876 314.553 676.373 314.94 670.956C315.894 668.812 321.399 678.415 322.792 679.981C327.962 684.949 321.296 691.176 315.855 690.996ZM348.539 707.198C343.343 707.891 339.243 696.337 335.865 692.485C319.182 673.01 353.748 696.927 348.539 707.198ZM351.44 729.908C355.592 729.908 359.395 736.661 358.828 740.615C356.636 748.202 346.927 733.952 351.44 729.908ZM377.381 737.508C380.565 737.778 385.929 749.64 386.973 752.953C384.743 763.467 366.821 740.577 377.381 737.508ZM371.244 780.4C369.89 776.652 377.883 768.41 381.829 770.849C392.182 780.863 379.005 787.449 371.244 780.4ZM960.891 777.358C961.845 789.246 900.849 770.592 917.674 770.091C930.606 771.799 951.144 769.244 960.891 777.358ZM924.314 758.473C928.788 763.326 907.231 764.289 905.619 762.44C907.45 757.446 920.008 756.56 924.314 758.473ZM777.849 540.123C770.436 551.253 756.731 548.699 747.796 555.67C740.215 568.2 739.364 565.016 727.606 570.344C721.623 574.221 720.914 580.832 713.178 578.945C711.889 578.791 710.136 578.74 709.852 580.19C715.37 611.323 687.612 594.043 705.752 611.413C707.828 613.569 705.7 613.621 704.024 613.223C673.094 597.175 680.353 642.07 653.355 632.531C620.516 624.071 642.202 656.885 622.528 651.801C578.189 634.354 607.263 692.228 572.387 670.75C558.836 665.397 554.685 694.051 530.137 684.885C521.486 682.484 524.644 707.942 524.915 713.18C530.446 734.825 503.242 701.292 495.106 708.79C485.927 716.685 492.218 731.449 493.959 741.437C494.707 747.817 486.545 741.475 487.487 747.445C487.912 752.965 493.624 764.687 491.754 771.914C476.837 780.092 456.647 751.977 442.271 748.048C426.529 738.176 428.746 754.224 438.751 762.08C451.992 776.202 439.783 785.163 429.301 769.373C428.011 763.583 421.823 761.002 418.406 757.151C418.251 754.891 421.99 751.412 419.322 749.743C381.429 734.491 430.242 789.336 405.603 776.831C386.019 772.287 403.94 755.764 396.81 742.644C390.377 732.681 381.377 721.063 371.708 713.398C364.913 709.855 348.178 701.1 358.222 694.051C366.048 695.746 373.319 707.377 379.688 712.923C386.367 720.934 392.259 739.216 403.128 725.697C408.504 725.222 415.724 749.923 419.644 735.364C423.628 725.569 409.897 703.86 401.065 709.791C401.323 721.448 389.384 711.447 386.225 706.492C378.386 692.459 404.894 713.475 393.51 686.721C389.242 676.001 377.819 683.576 378.373 679.236C379.792 674.152 374.905 656.975 383.234 658.952C384.833 670.917 396.733 673.279 404.353 680.071C403.927 698.891 402.638 702.614 420.856 712.166C426.335 719.753 430.809 727.456 439.873 731.705C453.385 743.003 455.577 739.909 453.862 723.258C453.23 696.902 442.606 705.413 429.932 689.186C418.303 683.088 417.465 679.172 414.68 666.244C404.804 645.999 418.496 659.491 427.418 659.684C422.016 639.631 432.279 619.026 417.607 603.029C416.382 590.05 428.192 599.165 433.955 595.904C439.551 588.317 447.944 573.836 443.586 594.287C416.562 640.17 451.399 623.904 456.969 663.766C458.813 672.509 473.214 664.716 472.131 658.105C481.852 652.148 483.4 642.917 478.397 631.723C473.433 623.262 477.301 621.208 485.424 623.904C492.141 626.138 494.926 634.534 501.837 636.331C508.077 637.358 510.617 628.706 512.422 623.827C513.569 617.524 526.424 605.802 522.697 618.833C520.415 625.83 526.398 629.514 531.49 632.865C542.617 642.917 557.083 651.082 560.28 630.285C568.725 612.324 550.327 606.354 556.438 594.158C557.083 592.785 559.133 590.641 556.928 589.973C541.122 584.132 541.792 606.008 532.896 597.689C530.472 591.976 537.241 584.401 538.672 578.611C541.199 566.081 544.77 564.233 552.661 555.182C554.659 542.126 549.644 545.54 561.789 536.271C565.567 529.287 567.268 520.994 574.437 516.295C579.091 511.738 592.642 506.294 592.358 517.027C591.365 522.92 583.153 530.481 583.836 537.735C585.422 544.128 591.881 533.627 595.775 530.212C605.574 520.352 606.837 524.473 612.819 532.69C618.686 530.867 617.951 515.538 625.932 517.759C644.73 528.119 628.471 498.836 639.289 504.446C651.718 516.886 655.224 537.196 660.872 553.051C673.481 558.712 671.663 541.317 677.181 538.004C689.752 540.084 699.757 546.542 712.173 548.57C724.769 552.473 717.227 543.936 737.636 548.917C738.59 545.682 733.665 540.174 733.936 537.825C736.837 534.487 745.269 545.386 748.015 537.337C752.089 531.149 750.387 512.906 760.315 514.973C766.62 516.488 782.826 531.791 777.837 540.11L777.849 540.123ZM509.521 624.392C497.969 634.252 482.523 604.685 498.11 600.975C510.823 601.861 504.841 610.501 499.761 616.073C498.923 620.836 512.203 617.832 509.521 624.392ZM450.961 629.463C446.023 626.78 439.396 607.471 448.782 609.769C450.084 615.097 452.121 624.79 450.961 629.463ZM2003.25 582.514C1998.26 579.818 1988.08 579.677 1983.81 577.52C1990.07 569.637 2005.75 569.804 2014.93 571.653C2038.32 577.238 2013.11 585.98 2003.25 582.514ZM2233.17 626.292C2188.52 640.478 2222.48 613.788 2238.97 611.028C2246.82 618.294 2245.64 626.202 2233.17 626.292ZM2065.39 673.69C2086.19 679.159 2077.63 685.321 2061.45 681.637C2058.01 682.061 2060.6 684.551 2062.54 685.476C2070.19 689.956 2078.74 687.414 2086.58 685.514C2116.57 687.273 2145.6 698.16 2175.93 701.844C2205.86 705.041 2172.77 709.752 2163.9 706.889C2156.87 703.988 2149.53 705.914 2142.83 707.994C2111.54 703.577 2076.28 702.204 2047.56 686.31C2032.44 665.975 2003.38 666.912 1981.8 654.42C1975.65 646.165 2001.2 658.362 2005.17 658.272C2025.83 661.687 2046.12 666.116 2065.41 673.69L2065.39 673.69ZM2523.03 714.605C2519.16 692.883 2552.01 690.726 2536.62 718.7C2533.72 719.792 2532.27 714.169 2528.97 714.579C2526.86 714.361 2524.27 715.671 2523.03 714.605ZM2670.59 712.076C2691.58 690.559 2688.03 695.99 2680.6 718.944C2680.18 725.248 2686.28 733.888 2687.48 737.624C2688.27 740.179 2686.04 741.36 2683.79 742.117C2679.11 743.144 2666.41 749.871 2672.6 755.045C2679.27 754.853 2687.06 756.599 2685.43 765.174C2678.06 792.751 2681.07 750.539 2663.83 781.171C2656.65 788.553 2651.11 774.867 2652.14 768.769C2652.17 762.427 2658.24 755.366 2652.44 753.646C2639.85 751.091 2633.23 767.678 2619.95 763.698C2604.27 765.791 2597.42 751.027 2598.48 763.891C2599.38 769.437 2603.3 774.084 2603.02 780.464C2603.46 781.851 2600.58 794.034 2599.59 789.053C2600.05 770.502 2588.42 764.122 2572.44 773.712C2561.03 776.626 2561.1 772.094 2559.72 784.881C2559.21 786.922 2558.51 791.005 2556.71 791.133C2554.48 788.565 2556.01 782.095 2552.9 779.63C2546.93 775.663 2518.6 777.91 2527.01 765.996C2536.57 767.062 2549.53 764.943 2555.88 756.598C2556.05 737.739 2560.1 745.519 2571.17 750.988C2575.76 749.152 2571.25 738.805 2574.18 736.905C2580.77 735.39 2588.49 738.343 2593.8 732.103C2603.74 729.279 2601.81 744.107 2611.62 722.603C2617.69 708.648 2628.44 722.898 2641.76 711.01C2659.66 695.168 2654.98 709.213 2649.23 720.639C2651.37 727.071 2667.88 715.029 2670.59 712.102L2670.59 712.076ZM2714.29 746.983C2738.85 716.056 2712.17 776.6 2700.97 771.375C2696.21 768.101 2699.1 758.871 2699.3 753.787C2700.49 739.036 2705.66 749.178 2714.27 746.983L2714.29 746.983ZM2734.91 732.951C2749.48 722.976 2735.98 750.963 2732.85 755.045C2720.64 772.98 2725.86 734.992 2734.91 732.951ZM2699.25 799.67C2698.34 808.323 2687.42 813.959 2681.18 818.863C2666.09 832.87 2652.14 854.142 2628.33 848.879C2609.17 845.168 2612 865.003 2603.68 862.269C2594.5 854.515 2592.86 882.823 2583.34 882.746C2578.91 880.062 2596.84 856.004 2590 854.99C2582.13 862.217 2580.34 883.554 2567.25 872.09C2563.89 871.371 2554.76 885.981 2554.23 877.084C2553.92 875.043 2554.99 869.368 2551.79 869.779C2547.09 870.87 2543.97 878.907 2538.68 878.06C2535.41 877.328 2531.91 872.334 2527.75 873.746C2503.97 895.211 2514.88 883.362 2484.22 892.04C2383.75 882.964 2295.96 847.813 2200.59 821.7C2190.51 821.302 2188.95 824.615 2186 812.675C2168.24 801.108 2144.07 800.98 2129.64 784.085C2086.16 744.094 2154.29 776.716 2172.61 779.283C2196.55 784.123 2224.47 784.457 2249.34 789.592C2292.49 801.288 2335.48 811.712 2379.35 817.053C2391.02 827.311 2406.09 816.86 2419.32 824.114C2432.52 836.028 2442.81 832.151 2458.46 827.965C2467.6 828.517 2474.31 829.673 2483.01 827.696C2496.92 827.195 2512.91 830.841 2525.04 836.13C2537.14 831.997 2540.45 836.76 2552.25 839.751C2569.2 846.799 2572.5 826.682 2589.95 828.286C2598.66 828.62 2609.08 834.949 2614.48 825.719C2623.51 811.661 2637.52 812.611 2651.15 807.27C2656.56 805.922 2676.62 788.142 2673.5 801.853C2669.87 822.329 2685.82 779.938 2699.26 799.657L2699.25 799.67ZM2502.23 743.427C2509.6 741.411 2523.19 758.473 2524.6 764.455C2523.68 775.085 2511.39 788.039 2501.36 778.757C2466.65 764.841 2478.69 786.177 2445.49 777.46C2438.7 776.716 2431.34 777.756 2424.95 774.61C2411.54 768.204 2401.99 780.529 2387.54 776.023C2362.38 776.754 2396.27 755.7 2355.73 769.642C2346.71 771.568 2334.28 771.593 2330.09 762.504C2329.47 754.981 2343.07 759.975 2347.52 759.23C2367.89 754.711 2377.79 754.827 2394.06 767.793C2401.5 769.039 2410.41 759.705 2416.87 756.059C2428.99 748.254 2425.21 758.499 2430.69 758.601C2435.51 757.009 2440.41 750.282 2444.73 756.329C2453.81 758.152 2453.9 751.104 2467.94 756.162C2478.12 755.892 2482.65 740.384 2493.48 744.787C2496.46 745.173 2499.38 744.184 2502.23 743.439L2502.23 743.427ZM2169.3 904.866C2166.4 904.686 2156.04 897.651 2162.39 896.906C2166.78 898.421 2171.08 901.168 2175.5 903.248C2189.35 909.821 2173.99 906.727 2169.31 904.866L2169.3 904.866ZM2220.74 904.737C2226.03 906.226 2253.15 913.814 2238.5 918.102C2213.62 916.818 2192.16 901.605 2170.18 890.859C2162.03 887.149 2161.61 895.507 2154.06 893.786C2086.5 858.122 2023.69 821.238 1964.47 770.964C1960.66 767.999 1942.52 752.003 1956.94 757.651C2048.52 800.364 2129.36 862.359 2220.75 904.737L2220.74 904.737ZM2799.31 780.285C2796.27 787.05 2793.47 784.919 2791.62 780.079C2788.07 777.589 2787.21 788.065 2787.78 792.276C2788.85 798.695 2790.9 805.281 2786.82 811.083C2777.72 826.977 2789.53 817.104 2791.22 822.278C2795.16 837.029 2783.42 850.599 2771.12 858.084C2756.46 870.459 2741.58 885.3 2722.47 889.691C2711.68 889.858 2699.87 902.093 2689.81 896.829C2686.41 880.64 2683.6 865.106 2695.26 851.369C2703.95 839.841 2703.34 847.569 2705.85 856.453C2708.82 861.665 2729.22 865.376 2727.29 856.068C2725.72 847.621 2742.22 833.113 2731.55 827.452C2726.77 827.747 2723.62 833.987 2718.99 834.243C2713.36 833.691 2712.65 828.325 2717.43 824.936C2738.36 790.029 2703.15 821.572 2695.05 832.176C2690.97 836.554 2688.51 843.795 2684.9 847.89C2677.42 851.382 2683.38 834.988 2686.81 832.472C2702 818.594 2704.95 793.932 2726.2 788.18C2731.76 781.761 2729.83 770.72 2740.7 769.783C2756.41 762.876 2777 766.137 2758.37 784.56C2748.83 793.457 2754.61 811.366 2749.24 820.314C2746.65 818.671 2747.86 812.47 2744.64 811.096C2735.46 811.905 2739.22 825.09 2739.92 831.432C2740.05 870.344 2761.47 816.219 2766.54 806.025C2776.8 795.87 2783.95 784.791 2784.22 770.027C2783.88 765.213 2776.53 770.541 2774.12 766.355C2767.95 758.819 2770.02 757.985 2778 756.547C2784.06 752.58 2789.72 753.748 2795.91 751.964C2803.3 745.789 2809.06 737.277 2804.77 754.236C2801.93 762.684 2803.12 772.287 2799.31 780.272L2799.31 780.285ZM2994.71 770.425C2994.45 759.217 3014.28 747.843 3022.04 740.577C3051.26 718.816 3000.9 772.89 2994.71 770.425ZM3025.28 714.733C3037.85 726.082 2974.12 780.439 2992.84 744.8C2996.76 737.97 3018.08 707.891 3025.28 714.733ZM2747.51 681.265C2757.39 687.915 2739.28 707.326 2759.1 706.17C2755.41 711.704 2744.54 716.402 2738.11 716.569C2735.39 715.324 2733.57 717.635 2731.82 719.817C2723.84 731.333 2709.68 738.227 2696.42 742.631C2684.95 743.106 2690.06 729.459 2695.64 724.876C2709.23 707.287 2722.46 681.881 2747.51 681.252L2747.51 681.265ZM2687.65 605.032C2683.2 618.653 2679.68 614.75 2669.57 610.283C2662.47 628.564 2644.04 639.104 2624.7 641.98C2610.05 647.346 2601.51 659.979 2585.51 665.333C2558.29 673.51 2597.31 696.632 2560.46 705.426C2553.24 706.954 2545.13 700.419 2555.25 696.516C2560.33 695.592 2568.81 697.004 2569.87 690.097C2570.31 658.759 2513.1 703.423 2494.92 699.289C2482.55 699.033 2470.4 714.502 2464.2 708.546C2451.51 699.533 2434.77 710.574 2421.18 706.325C2401.57 709.419 2381.74 721.396 2360.73 714.015C2353.45 711.704 2348.19 707.454 2342.58 715.132C2337.64 718.636 2333.75 705.567 2326.79 705.554C2318.41 700.766 2290.05 709.521 2294.77 695.22C2301.41 697.8 2308.5 695.258 2315.29 693.435C2326.39 691.355 2331.65 695.9 2339.68 700.214C2360.79 705.657 2353.76 693.088 2369.24 691.073C2380.98 690.238 2386.4 700.624 2394.69 688.236C2399.62 695.143 2402.4 700.188 2411.44 692.074C2417.84 686.246 2406.77 684.282 2403.35 680.738C2399.61 668.709 2419.73 677.311 2424.84 676.54C2427.87 673.896 2423.84 667.798 2426.49 664.935C2435.47 658.451 2449.71 663.831 2459.27 659.363C2464.17 663.06 2451.46 678.607 2467.46 665.718C2484.96 634.893 2480.75 663.843 2498.84 645.023C2506.71 628.86 2522.63 640.568 2535.14 634.816C2538.67 632.724 2542.16 630.015 2546.39 632.031C2558.4 635.137 2565.67 604.506 2575.11 604.942C2581.47 626.395 2587.6 581.821 2599.94 583.195C2616.79 585.903 2614.76 582.09 2630.2 576.994C2634.1 572.372 2637.62 571.101 2643.28 573.052C2653.12 573.938 2663.34 568.11 2671.47 563.912C2674.14 579.138 2701.35 550.843 2705.58 545.913C2711.63 551.793 2696.76 566.351 2690.07 569.278C2679.31 575.261 2692.68 575.53 2697.69 576.544C2704.27 582.54 2688.74 596.854 2687.65 605.045L2687.65 605.032ZM2776.92 555.105C2768.63 558.109 2741.68 591.976 2738.27 575.286C2732.79 567.737 2718.59 582.963 2713.25 582.219C2709.06 573.348 2725.73 565.889 2732.94 564.836C2740.52 563.103 2753.54 568.893 2759.59 561.678C2760.21 559.059 2752.29 559.508 2749.81 558.532C2742.86 557.184 2737.31 547.62 2730.26 553.462C2721.87 553.885 2713.52 564.926 2705.44 567.237C2699.79 568.289 2700.82 564.323 2704.14 561.845C2722.1 550.817 2740.43 538.8 2760.22 531.02C2784.53 541.073 2770.2 534.448 2792.73 532.291C2801.56 537.709 2783.82 552.511 2776.93 555.105L2776.92 555.105ZM2932.4 541.034C2919.75 537.992 2929.08 533.691 2938.47 534.615C2943.83 534.474 2955.34 530.417 2956.98 536.862C2952.78 544.86 2939.89 538.621 2932.4 541.034ZM3086.29 562.268C3079.29 566.351 3057.66 549.687 3068.78 546.76C3074.88 548.865 3085.5 556.17 3086.29 562.268ZM2994.53 527.054C3015.65 512.996 3077.4 549.726 3056.43 544.372C3035.97 533.883 3010.94 536.117 2988.65 536.875C2979.42 537.812 2969.28 544.757 2966.65 531.701C2964.19 524.268 2971.69 528.26 2976.14 530.032C2982.64 531.752 2987.62 524.203 2994.53 527.054ZM2361.07 451.399C2327.88 471.747 2350.55 442.412 2312.35 479.63C2297.96 491.312 2275.51 480.708 2266.95 500.62C2265.05 504.035 2265.94 505.614 2269.39 503.277C2274.78 495.459 2299.89 486.113 2287.81 503.586C2275.83 517.566 2251.88 517.271 2242.26 532.959C2184.25 564.361 2110.22 602.477 2040.25 589.755C2029.35 583.978 2017.21 570.292 2040 574.182C2073.71 572.988 2108.34 564.297 2142.08 558.147C2158.87 557.095 2168.07 541.766 2184.05 537.067C2201.7 528.055 2215.69 512.226 2232.16 501.39C2244.54 497.333 2252.99 489.977 2261.33 480.105C2288.12 455.854 2314.31 432.065 2342.72 410.599C2344.94 408.712 2353.89 401.985 2351.01 408.481C2350.43 411.947 2340.31 418.649 2343.04 421.114C2345.79 420.523 2348.7 418.777 2351.31 417.339C2369.33 405.785 2343.57 446.045 2333.68 441.244C2329.12 440.859 2326.75 438.265 2323.9 440.73C2304.28 469.308 2356.3 438.496 2366.54 439.087C2387.77 428.187 2369.76 446.7 2361.06 451.36L2361.07 451.399ZM2539.78 447.753C2531.41 444.826 2546.24 438.163 2548.92 435.325C2553.64 433.554 2562.81 414.772 2566.22 421.332C2565.54 431.41 2549.81 447.791 2539.78 447.753ZM2612.12 410.882C2598.62 423.001 2597.38 421.756 2580.61 426.506C2570.93 431.949 2576.32 425.158 2573.13 420.228C2571.31 417.083 2564.71 416.53 2566 413.757C2594.11 408.918 2590.53 397.761 2612.12 395.348C2635.28 386.002 2628.88 407.441 2612.12 410.856L2612.12 410.882ZM2634.45 403.834C2626.73 398.249 2632.38 379.133 2618 386.361C2611.72 387.568 2603.15 395.348 2599.22 389.956C2598.39 385.064 2601.1 376.822 2607.42 379.737C2620.58 382.06 2658.99 365.704 2645.01 394.051C2642.86 397.735 2638.64 405.515 2634.45 403.834ZM2542.05 374.858C2545.92 369.479 2559 362.854 2565.36 362.572C2565.73 366.385 2542.42 383.806 2542.05 374.858ZM2526.95 375.23C2511.36 370.955 2518.22 368.606 2527.96 363.047C2532.46 359.722 2528.33 374.601 2526.95 375.23ZM2566.6 376.001C2570.36 372.919 2582.69 369.145 2584.66 375.115C2583.7 377.464 2575.56 379.749 2572.22 382.022C2568.65 384.076 2562.14 390.058 2559.79 389.981C2555.93 389.07 2564.65 377.117 2566.6 376.001ZM2668.75 390.328C2665.68 386.887 2665.37 378.825 2662.11 375.718C2657.59 373.176 2643.44 377.67 2645.57 368.067C2647.99 364.844 2655.04 367.399 2658.86 366.757C2686.04 358.181 2663.92 394.359 2682 386.631C2689.49 382.201 2695.36 374.088 2704.85 377.695C2707.9 378.132 2717.28 367.361 2718.1 370.57C2714.62 383.28 2699.38 386.669 2688.36 388.916C2682.18 390.354 2673.96 396.67 2668.75 390.341L2668.75 390.328ZM2933.01 377.515C2949.49 398.339 2911.2 369.954 2909.3 363.317C2913.82 361.339 2928.31 373.895 2933.01 377.515ZM2890.83 299.909C2886.7 299.909 2879.24 296.7 2875.69 294.183C2876.59 285.287 2895.69 291.038 2890.83 299.909ZM2554.4 255.258C2545.77 258.494 2537.19 266.941 2553.1 265.824C2556.36 265.131 2558.64 263.642 2561.77 264.694C2571.21 269.791 2570.61 286.185 2584.52 284.375C2610.74 274.092 2631.18 272.063 2592.74 292.078C2580.77 294.646 2573.12 310.77 2570.71 307.856C2566.33 300.371 2560.09 305.956 2552.9 309.32C2545.28 312.414 2539.64 318.396 2535.63 325.239C2531.51 330.066 2529.66 323.416 2525.58 326.831C2528.85 322.556 2376 437.572 2433.6 380.699C2448.63 364.138 2441.03 367.502 2428.91 375.744C2418.28 381.2 2432.1 366.257 2432.79 363.355C2437.54 357.963 2431.55 344.714 2427.08 354.831C2426.26 356.628 2425.95 358.99 2424.04 359.671C2419.56 360.338 2414.36 357.373 2409.71 358.631C2398.56 363.471 2398.27 358.053 2405.72 352.379C2449.27 328.358 2509.91 252.999 2554.4 255.246L2554.4 255.258ZM2471.07 238.171C2494.63 246.529 2471.07 256.003 2477.81 258.032C2483.11 256.876 2496.97 249.468 2497.9 258.93C2484.49 258.827 2474.28 266.71 2462.79 273.938C2456.7 276.737 2458.48 286.673 2452.42 287.456C2446.72 286.725 2438.97 286.391 2438.92 293.837C2437.29 307.317 2419.1 320.065 2408.09 327.293C2394.75 330.233 2431.37 305.199 2424.71 303.016C2417.62 303.684 2393.21 332.261 2389.33 324.892C2391.37 310.822 2374.28 315.174 2369.45 323.737C2330.95 342.789 2463.89 225.603 2473.16 226.309C2475.76 224.961 2490.71 217.643 2489.33 222.791C2486.52 228.927 2471.61 233.113 2471.06 238.171L2471.07 238.171ZM2607.52 144.248C2611.73 146.905 2621 146.867 2623.49 148.407C2623.74 156.469 2608.59 152.143 2603.06 153.876C2575.08 165.751 2543.09 171.105 2514.11 180.194C2510.47 181.529 2466.31 198.925 2482.2 201.518C2523.06 186.523 2482.47 224.396 2465.46 223.317C2450.55 239.532 2427.66 249.982 2411.48 265.413C2399.9 282.745 2376.85 274.015 2384.62 286.686C2376.22 310.09 2348.03 300.282 2386.25 267.545C2377.69 264.592 2357.59 290.127 2348.7 297.598C2314.56 327.678 2280.82 362.893 2251.34 397.453C2243.67 408.288 2229.96 411.767 2220.57 420.844C2215.07 429.754 2210.41 436.07 2201.66 442.502C2160.12 479.168 2113.52 514.665 2059.7 530.122C2028.03 541.83 1866.07 536.49 1984.08 512.842C2140.68 499.503 2239.71 353.2 2343.87 246.734C2398.6 190.798 2454.75 145.852 2521.41 136.968C2530.07 135.813 2516.57 150.384 2516.89 154.505C2518.2 157.83 2528.86 145.377 2531.99 144.53C2535.3 142.617 2539.2 144.286 2542.61 143.901C2550.21 137.43 2551.51 137.418 2554.67 147.752C2558.74 149.858 2562.26 142.219 2565.9 140.062C2580.29 131.435 2596.12 131.756 2607.49 144.235L2607.52 144.248ZM2677.42 41.4401C2678.74 44.4186 2686.98 58.7202 2678.88 56.7046C2675.28 54.2911 2624.86 39.9765 2635.6 33.8528C2648.45 36.5231 2666.9 34.1096 2677.44 41.4401L2677.42 41.4401ZM2534.51 33.519C2531.23 33.0569 2519.33 36.6131 2521.39 30.3995C2524.05 24.3656 2546.75 28.6534 2534.51 33.519ZM2582.3 25.5081C2586.52 24.3912 2588.4 25.9061 2585.03 28.9102C2576.74 34.2765 2559.49 32.3122 2548.28 31.4649C2556.73 24.7891 2571.74 23.0304 2582.3 25.5081ZM2484.66 6.39209C2533.14 -3.60878 2467.01 21.8364 2458.32 18.7039C2465.7 13.5815 2476.55 9.65297 2484.66 6.39209ZM2375.19 41.1833C2374.09 37.8197 2393.8 29.1798 2395.73 32.2866C2393.98 37.6015 2379.94 43.982 2375.19 41.1833ZM2468.52 -15.2657C2447 -4.40464 2424.58 1.53929 2401.89 12.3104C2398.41 14.0436 2379.66 23.0689 2383.49 15.6228C2388.49 10.6288 2486.94 -33.1235 2468.52 -15.2785L2468.52 -15.2657ZM575.43 526.72C568.674 531.585 566.714 547.299 568.39 554.001C569.783 556.093 571.459 551.138 571.987 549.97C572.31 543.961 588.916 524.525 575.43 526.72ZM510.436 689.212C504.725 677.978 494.642 697.325 503.023 699.713C506.31 700.021 511.042 692.036 510.436 689.212ZM512.177 703.808C523.187 709.817 520.325 677.4 512.976 688.339C512.331 692.37 509.405 700.496 512.177 703.808ZM447.699 665.114C453.204 657.335 447.145 651.044 442.606 645.472C441.974 632.839 427.934 640.157 432.021 649.85C440.157 666.745 431.428 661.443 426.709 673.177C426.941 677.105 438.88 683.986 439.86 679.698C434.883 670.262 443.483 671.752 447.699 665.127L447.699 665.114ZM2444.28 219.427C2435.63 226.835 2422.07 230.584 2412.6 234.769C2411.64 245.373 2428.87 236.951 2434.8 233.678C2445.74 229.454 2452.54 218.914 2462.82 213.868C2466.19 211.558 2474.13 213.124 2474.89 208.618C2467.62 194.123 2452.36 215.409 2444.28 219.44L2444.28 219.427ZM2437.51 237.388C2427.97 230.815 2403.67 268.828 2403.31 254.064C2409.33 244.68 2409.52 237.131 2398.99 249.558C2384.44 278.996 2391.52 276.749 2414.17 260.484C2418.83 252.152 2434.13 245.309 2437.51 237.388ZM400.24 551.908C398.383 544.68 393.02 553.885 390.17 556.787C388.043 559.213 379.083 565.247 382.641 567.699C387.025 568.405 400.665 556.196 400.24 551.921L400.24 551.908ZM2108.04 77.1557C2103.17 83.6004 2087.93 115.195 2107.18 100.367C2120.96 91.3033 2147.97 78.4011 2152.47 65.7042C2151.04 58.0142 2137.89 72.1873 2131.28 73.2144C2112.81 79.6077 2123.99 71.2245 2131.14 64.9595C2127.01 63.9196 2112.71 73.2144 2108.04 77.1557ZM2197.81 133.104C2200.67 122.641 2261.26 64.5871 2215.04 101.176C2203.62 112.987 2178.74 125.35 2188.3 144.633C2188.52 159.076 2194.17 152.785 2198.55 144.286C2200.62 139.369 2197.78 136.737 2197.82 133.104L2197.81 133.104ZM2251.71 61.4932C2244.98 63.1236 2218.94 81.3538 2221.94 87.0924C2225.95 84.7302 2253.72 64.4845 2251.71 61.4932ZM2208.51 47.8848C2187.35 64.6 2170.28 84.5762 2152.37 105.168C2144.36 114.078 2154.42 111.087 2159.06 107.402C2172.64 95.7581 2184.29 82.4578 2199.27 72.8806C2218.38 46.049 2240.31 57.7059 2261.02 33.3778C2265.96 21.6951 2275.14 14.1206 2285.86 6.73872C2289.47 5.00558 2286.44 13.222 2296.67 8.34352C2298.89 7.16242 2302.34 5.5706 2302.06 2.93879C2296.19 -2.36334 2305.07 -8.28178 2297.61 -5.95808C2266.67 9.08816 2234.98 26.4067 2208.51 47.9105L2208.51 47.8848ZM238.691 898.922C245.64 896.739 238.059 885.057 232.734 886.096C224.947 888.369 231.406 901.887 238.691 898.922ZM235.725 812.534C235.416 805.563 223.98 799.555 220.396 805.987C224.56 814.293 227.216 814.062 226.971 824.846C236.086 835.501 239.31 821.213 235.725 812.534ZM1889.38 139.947C1901.55 135.749 1900.82 113.012 1906.49 102.665C1916.08 78.9145 1935.91 42.3645 1916.2 21.6952C1913.37 43.5456 1900.79 63.2008 1903.07 85.8857C1903.69 107.98 1899.67 89.8397 1894.81 92.5871C1893.36 105.079 1886.32 126.903 1889.37 139.934L1889.38 139.947ZM2433.89 -27.924C2435.82 -26.0881 2451.32 -34.7155 2449.45 -37.7068C2447.45 -39.6454 2431.44 -32.8923 2433.89 -27.924ZM2007.69 133.117C2012.15 135.826 2018.98 131.525 2023.39 131.165C2034.4 131.679 2001.64 139.356 2005.4 154.338C2004.8 200.363 2018.93 159.165 2029.36 144.055C2033.15 130.382 2046.02 114.579 2048.32 101.882C2043.77 95.1291 2029.84 107.954 2023.22 109.02C2012.16 112.037 2001.32 122.603 2007.69 133.117ZM2271.27 56.2552C2318.53 32.1068 2364.67 -4.12225 2417.32 -21.6848C2428.4 -23.6747 2426.18 -34.9722 2433.55 -40.8777C2428.42 -41.6095 2413.92 -36.5642 2410.02 -32.4046C2408.84 -28.6302 2411.62 -25.9726 2405.77 -22.8915C2360.58 -4.37896 2303.98 20.2958 2271.28 56.2552L2271.27 56.2552Z" stroke="#C4C3C1" stroke-width="0.85" stroke-linejoin="round"/>
</g>
<defs>
<clipPath id="clip0_138_960">
<rect width="1440" height="1067" fill="white"/>
</clipPath>
</defs>
</svg>
